<?xml version="1.0" standalone="no"?>
<!DOCTYPE svg PUBLIC "-//W3C//DTD SVG 20010904//EN"
 "http://www.w3.org/TR/2001/REC-SVG-20010904/DTD/svg10.dtd">
<svg version="1.0" xmlns="http://www.w3.org/2000/svg"
 width="504.000000pt" height="271.000000pt" viewBox="0 0 504.000000 271.000000"
 preserveAspectRatio="xMidYMid meet">
<metadata>
Created by potrace 1.15, written by Peter Selinger 2001-2017
</metadata>
<g transform="translate(0.000000,271.000000) scale(0.100000,-0.100000)"
fill="#000000" stroke="none">
<path d="M2265 2655 c-16 -8 -40 -11 -51 -8 -12 2 -25 0 -28 -6 -4 -5 -13 -8
-21 -4 -8 3 -15 0 -15 -5 0 -6 -13 -10 -28 -10 -15 1 -38 -4 -50 -11 -13 -7
-32 -9 -43 -6 -11 4 -26 1 -34 -5 -8 -6 -19 -9 -25 -5 -5 3 -10 2 -10 -4 0 -6
-12 -10 -27 -10 -51 -1 -72 -5 -66 -15 4 -5 -5 -6 -21 -2 -15 4 -37 1 -54 -7
-15 -8 -41 -15 -59 -15 -17 0 -40 -5 -51 -11 -10 -5 -40 -11 -65 -13 -26 -2
-47 -6 -47 -10 0 -5 -11 -8 -24 -8 l-23 0 1 -152 c2 -165 -4 -224 -22 -221 -7
2 -12 -1 -12 -7 0 -12 -55 -41 -64 -33 -3 4 -6 1 -6 -5 0 -14 -55 -44 -64 -35
-3 4 -6 1 -6 -5 0 -7 -16 -20 -35 -29 -19 -10 -65 -36 -102 -59 -117 -71 -168
-99 -178 -99 -5 0 -19 -9 -29 -19 -18 -18 -20 -39 -24 -298 l-5 -279 47 28 46
28 0 230 0 230 31 20 c16 11 34 19 40 18 5 -2 9 1 9 6 0 11 130 94 147 94 7 0
10 4 8 8 -5 7 65 45 78 41 4 -1 7 2 7 7 0 11 80 64 97 64 7 0 10 4 8 8 -4 5
17 19 28 19 1 0 2 -111 2 -246 0 -135 4 -248 9 -251 4 -3 5 -28 2 -57 -3 -28
-6 -91 -7 -139 -1 -56 -6 -90 -13 -93 -14 -5 -11 -111 4 -129 5 -6 7 -14 4
-18 -3 -3 4 -12 15 -19 22 -14 22 -14 -79 -39 -8 -2 -30 -19 -47 -38 l-33 -33
-9 25 c-17 44 -68 84 -115 91 l-44 7 19 40 c17 35 18 45 7 81 -16 54 -57 81
-117 75 -24 -3 -47 -10 -51 -17 -4 -6 -11 -11 -15 -11 -5 1 -10 -6 -11 -15 -2
-9 -7 -20 -12 -23 -5 -3 -8 -27 -8 -53 1 -25 3 -45 5 -42 4 4 41 -51 41 -61 0
-3 -7 -5 -15 -5 -9 0 -25 -9 -37 -20 -12 -10 -26 -16 -32 -13 -6 3 -8 3 -4 -2
4 -4 3 -15 -4 -22 -16 -20 -20 -46 -20 -128 -1 -109 5 -159 20 -174 8 -8 11
-24 8 -37 -4 -15 -2 -24 5 -24 16 0 5 -25 -12 -26 -8 0 -36 -4 -64 -9 -27 -5
-56 -7 -63 -6 -7 1 -28 -3 -45 -8 -18 -6 -54 -13 -82 -15 -27 -3 -62 -7 -77
-11 -16 -3 -40 -7 -55 -9 -57 -9 -139 -25 -170 -35 -17 -5 -34 -7 -37 -4 -3 3
-18 1 -33 -6 -15 -6 -45 -13 -66 -16 -21 -2 -42 -7 -47 -10 -5 -3 -26 -8 -47
-10 -21 -3 -44 -6 -50 -7 -7 -1 -13 -5 -13 -10 0 -5 -12 -7 -27 -6 -20 2 -28
-2 -31 -15 -3 -16 2 -18 45 -14 26 3 48 6 48 7 0 4 53 9 117 12 37 1 64 7 61
12 -4 5 -2 7 3 4 8 -6 130 4 219 17 22 3 74 7 117 8 42 1 75 4 73 7 -3 5 82
11 198 14 31 0 57 3 57 6 0 6 11 6 177 11 68 2 123 6 123 9 0 5 37 7 275 13
83 3 150 5 150 6 0 8 341 14 725 14 473 0 730 -4 730 -13 0 -3 62 -6 138 -7
186 -2 291 -7 287 -13 -2 -3 29 -6 68 -7 123 -1 235 -8 232 -13 -2 -3 22 -6
53 -6 110 -3 200 -9 197 -14 -2 -3 35 -6 82 -7 47 -2 89 -5 94 -8 7 -5 100
-14 192 -19 15 0 27 -4 27 -7 0 -4 10 -7 23 -6 54 1 147 -7 147 -13 0 -3 26
-7 58 -8 51 -2 97 -8 97 -12 0 -3 39 -9 83 -13 23 -2 42 -1 42 3 0 13 -26 19
-51 13 -17 -5 -20 -3 -14 7 5 9 4 11 -4 6 -6 -4 -18 -2 -26 4 -8 6 -22 9 -32
6 -10 -3 -31 1 -46 9 -15 8 -33 12 -41 9 -7 -3 -26 0 -42 7 -16 6 -46 13 -67
15 -21 2 -46 8 -56 14 -10 5 -26 9 -37 8 -10 -1 -38 4 -60 11 l-42 11 10 45
c5 25 8 118 6 208 -3 134 -6 169 -22 200 -26 52 -82 74 -145 57 l-34 -9 20 22
c48 52 54 94 22 147 -31 50 -48 59 -109 59 -81 0 -120 -39 -120 -121 0 -39 5
-52 34 -82 19 -21 28 -36 20 -36 -8 0 -14 -5 -14 -12 0 -6 -3 -9 -6 -5 -11 11
-51 -48 -58 -86 l-7 -38 -40 35 c-21 20 -43 36 -48 36 -6 0 -22 5 -38 11 -24
9 -26 12 -13 22 47 38 55 128 15 171 -13 14 -37 31 -52 37 -35 13 -95 3 -121
-22 -12 -10 -24 -19 -27 -19 -10 0 -5 76 9 130 7 30 17 81 21 112 6 54 5 58
-20 74 -62 41 -109 -48 -142 -271 l-8 -50 -2 50 c-12 229 -65 462 -110 486
-24 13 -25 14 -5 29 14 12 19 28 18 58 0 23 -3 42 -6 42 -3 0 -5 35 -5 77 -1
80 -8 153 -17 169 -4 8 -9 92 -12 227 -1 15 -5 27 -10 27 -5 0 -7 3 -3 6 8 8
97 -28 97 -39 0 -5 4 -6 9 -2 5 3 17 -2 25 -11 9 -8 16 -12 16 -8 0 4 8 0 18
-9 9 -8 21 -15 25 -15 16 0 67 -25 67 -33 0 -5 7 -6 15 -3 8 4 17 -1 21 -10 3
-9 10 -13 15 -10 6 3 22 -2 37 -12 15 -10 34 -19 42 -21 29 -5 89 -40 82 -48
-4 -5 -2 -5 5 -2 6 4 34 -4 61 -18 27 -14 55 -25 62 -25 6 0 8 -5 4 -12 -4 -6
-3 -8 4 -5 11 7 115 -40 120 -55 2 -4 8 -6 13 -2 5 3 9 0 9 -6 0 -6 5 -8 11
-5 5 4 19 -1 31 -12 11 -10 22 -17 24 -16 2 2 21 -4 42 -13 34 -15 38 -21 40
-58 2 -23 4 -54 7 -71 13 -104 17 -134 18 -170 2 -22 6 -45 10 -51 4 -7 7 -29
7 -50 0 -75 3 -129 9 -139 7 -14 10 -29 15 -115 2 -41 5 -75 6 -75 4 0 10 -46
12 -96 3 -52 5 -58 33 -69 17 -8 33 -15 36 -17 9 -6 8 59 -2 114 -6 29 -10 83
-10 120 0 37 -5 88 -10 111 -5 24 -10 76 -10 115 0 40 -4 95 -9 122 -5 28 -12
91 -14 140 -3 50 -7 99 -10 110 -2 11 -5 41 -5 68 -1 44 -3 48 -36 64 -19 9
-35 21 -35 25 0 5 -4 7 -9 3 -5 -3 -15 0 -23 7 -7 7 -20 14 -28 16 -8 2 -24
11 -34 20 -15 13 -18 14 -12 2 4 -8 1 -7 -8 4 -8 10 -20 15 -25 11 -6 -3 -14
1 -17 9 -3 9 -10 14 -14 11 -11 -7 -41 5 -36 14 3 4 -5 8 -16 8 -11 1 -29 10
-40 20 -11 10 -21 17 -22 15 0 -2 -14 2 -31 9 -16 7 -36 13 -44 15 -8 1 -17 6
-20 11 -3 4 -13 9 -21 11 -8 2 -21 9 -28 15 -8 6 -19 12 -26 13 -26 5 -186 86
-186 95 0 6 -4 8 -9 4 -5 -3 -70 24 -143 60 -128 62 -137 65 -223 69 -50 3
-90 5 -90 6 0 1 -56 3 -125 6 -69 2 -145 6 -170 10 -25 3 -112 7 -195 10 -141
4 -205 15 -205 35 0 5 -6 9 -13 9 -21 0 -77 30 -77 41 0 6 -4 8 -9 4 -5 -3
-17 2 -25 11 -9 8 -16 13 -16 10 0 -4 -22 6 -50 20 -27 14 -50 29 -50 33 0 12
-44 9 -75 -4z m-559 -233 c6 -4 13 -19 16 -34 5 -29 4 -30 -49 -31 -13 -1 -23
-5 -23 -9 0 -4 -7 -8 -15 -8 -8 0 -15 -4 -15 -10 0 -12 2 -12 32 -1 13 4 35
11 51 15 26 6 27 5 27 -33 0 -34 -3 -39 -27 -44 -16 -3 -40 -9 -54 -12 -25 -7
-27 -5 -31 37 -7 74 3 108 37 123 37 16 37 16 51 7z m1369 -17 c77 -2 181 -4
230 -6 l90 -2 1 -41 c0 -23 4 -70 8 -106 4 -36 9 -103 12 -150 2 -47 7 -110 9
-140 3 -30 7 -97 9 -148 2 -51 6 -95 9 -98 3 -3 -3 -15 -13 -27 -20 -21 -20
-25 0 -127 7 -30 12 -61 12 -67 1 -7 4 -13 7 -13 3 0 7 -17 8 -37 1 -21 4 -54
6 -73 3 -19 3 -43 0 -53 -4 -16 -8 -14 -34 12 -16 17 -29 28 -29 26 0 -3 -14
2 -32 11 -40 21 -94 7 -137 -37 -27 -27 -31 -38 -31 -85 0 -60 19 -107 47
-119 13 -5 4 -11 -36 -21 -30 -8 -61 -20 -68 -26 -20 -16 -22 -9 -13 47 22
129 5 477 -30 620 -5 22 -10 70 -10 106 0 100 -8 129 -35 129 -12 0 -35 6 -51
14 -36 18 -85 10 -91 -15 -5 -16 -27 -24 -63 -21 -3 0 -4 -41 -2 -93 l3 -93
40 -6 c27 -4 39 -11 40 -24 4 -53 9 -81 17 -115 7 -27 6 -54 -3 -95 -8 -31
-14 -59 -14 -62 1 -15 -18 -7 -26 12 -6 12 -19 23 -29 24 -10 2 -22 7 -25 12
-3 5 -35 9 -71 8 -47 0 -70 -5 -84 -18 -24 -22 -46 -24 -25 -3 13 14 15 72 11
466 l-4 450 128 -7 c71 -3 192 -7 269 -9z m-968 -165 l1 -110 -29 0 c-40 0
-43 0 -55 -11 -7 -5 -26 -11 -44 -14 l-32 -4 7 42 c9 54 39 77 89 68 14 -3 56
21 56 32 0 5 -8 6 -17 2 -10 -4 -30 -9 -44 -11 -14 -2 -38 -8 -53 -14 -15 -5
-28 -10 -29 -10 -1 0 -2 24 -2 54 0 42 3 54 15 54 8 0 26 3 40 7 14 4 41 10
60 15 19 4 35 8 36 9 1 0 1 -48 1 -109z m-177 33 c0 -16 3 -39 7 -52 5 -19 3
-23 -9 -18 -9 3 -20 1 -25 -4 -5 -5 -29 -11 -54 -13 -24 -3 -56 -8 -71 -11
-28 -7 -28 -7 -28 44 0 53 3 56 59 54 7 -1 27 5 45 13 52 22 76 18 76 -13z m6
-130 c-7 -56 -7 -55 -48 -58 -18 -2 -34 -4 -35 -5 -2 -1 -7 -4 -13 -5 -5 -1
-13 -4 -17 -5 -5 -1 -12 -2 -16 -1 -4 1 -21 -6 -37 -14 -29 -15 -30 -15 -30 8
0 14 3 39 6 56 6 27 11 31 39 31 19 0 35 5 37 11 2 5 18 11 36 11 18 1 35 5
38 10 3 4 15 8 26 8 19 0 20 -4 14 -47z m-208 -53 c3 -43 1 -49 -14 -43 -9 3
-19 1 -23 -6 -4 -6 -22 -13 -39 -14 -34 -2 -41 -11 -16 -21 8 -3 28 1 44 9 44
23 50 19 50 -30 0 -33 -4 -45 -15 -46 -17 -2 -34 -5 -37 -9 -2 -1 -10 -3 -18
-5 -8 -2 -23 -6 -32 -10 -15 -6 -18 -1 -18 32 0 22 3 67 6 101 7 64 8 65 79
82 17 4 30 8 30 9 0 0 1 -21 3 -49z m719 -53 l42 -11 0 -96 0 -96 -32 3 c-40
2 -59 6 -74 16 -7 5 -17 5 -23 2 -6 -4 -10 13 -10 44 0 34 4 51 13 51 8 0 9 3
1 8 -6 4 -14 28 -17 54 l-7 47 33 -5 c17 -3 51 -11 74 -17z m-717 -147 c0 -37
-2 -40 -37 -49 -20 -6 -39 -8 -43 -6 -11 7 -33 -13 -25 -24 5 -9 10 -9 20 -1
7 6 26 13 41 15 16 2 79 15 139 27 l110 24 3 -45 c1 -25 0 -42 -4 -39 -3 4
-18 2 -33 -4 -14 -6 -42 -12 -61 -13 -19 -2 -47 -6 -62 -9 -27 -6 -28 -4 -30
31 -1 37 -1 37 -5 6 -5 -35 -25 -52 -67 -55 -15 -1 -26 -5 -26 -9 0 -4 -8 -9
-18 -11 -17 -5 -19 3 -20 83 -2 86 -1 89 20 89 13 1 37 7 53 15 44 20 45 19
45 -25z m538 -180 c-2 -13 -12 -25 -23 -27 -11 -3 -32 -7 -47 -10 -16 -3 -28
-9 -28 -13 0 -10 68 -6 94 5 17 8 19 5 13 -30 -9 -52 -19 -59 -85 -60 l-57 0
3 35 c2 19 8 37 13 38 6 3 5 9 -1 17 -6 8 -10 26 -8 41 3 26 7 28 50 29 26 0
50 4 54 8 12 12 26 -9 22 -33z m-527 -225 c1 -5 3 -26 4 -45 2 -19 5 -51 8
-70 7 -41 -2 -110 -14 -110 -5 0 -9 6 -9 13 0 29 -45 54 -102 56 -14 1 -17 13
-17 84 l0 82 64 0 c38 1 65 -3 66 -10z m1117 -26 c39 -38 49 -86 28 -127 -36
-70 -125 -95 -177 -49 -62 53 -66 109 -11 167 34 35 44 40 84 40 36 0 50 -6
76 -31z m196 -204 c-2 -49 -7 -103 -11 -120 -4 -16 -6 -38 -4 -47 1 -10 -2
-18 -7 -18 -5 0 -8 -11 -7 -25 2 -14 -1 -27 -5 -30 -5 -3 -7 -12 -4 -20 3 -7
0 -23 -6 -36 -7 -12 -13 -68 -13 -130 -1 -96 -3 -109 -18 -109 -10 0 -20 4
-23 9 -3 5 -59 8 -123 7 -65 -1 -110 0 -100 2 46 9 -12 42 -73 42 -42 0 -60
18 -60 59 0 12 -4 29 -9 39 -19 39 -32 95 -33 144 0 46 4 56 31 80 29 26 51
33 94 28 36 -3 173 22 212 40 49 23 105 72 105 93 0 9 5 19 10 22 6 3 10 28
10 55 0 27 6 72 13 102 l12 53 7 -75 c3 -41 4 -115 2 -165z m-586 200 c20 0
22 -5 22 -48 0 -58 23 -61 28 -4 3 39 17 45 78 39 l30 -4 -1 -61 c0 -41 4 -68
14 -79 8 -10 10 -18 6 -18 -4 0 4 -11 18 -24 l26 -24 -42 -7 c-83 -14 -154
-62 -173 -117 -7 -23 -27 -23 -48 1 -10 11 -38 28 -62 38 -47 19 -51 24 -31
45 34 36 40 66 33 164 -3 53 -9 100 -12 105 -3 5 16 6 43 2 26 -4 58 -7 71 -8z
m-179 -64 c17 -16 31 -26 32 -23 1 4 5 -9 10 -28 9 -38 -2 -94 -24 -124 -21
-28 -115 -34 -153 -10 -43 28 -53 45 -54 89 0 49 32 105 60 105 11 0 20 5 20
10 0 6 18 10 39 10 29 0 47 -7 70 -29z m-274 -176 c21 -57 37 -85 50 -85 7 0
15 -4 17 -9 3 -9 26 -14 133 -27 87 -10 87 -10 123 -19 42 -10 61 -46 57 -105
-3 -41 -11 -85 -15 -85 -1 0 -3 -10 -4 -23 -2 -12 -7 -27 -13 -33 -6 -6 -9
-30 -6 -52 3 -32 2 -38 -6 -27 -9 12 -13 12 -19 2 -6 -8 -52 -13 -153 -16
-130 -4 -145 -3 -147 12 -1 9 -6 64 -11 122 -6 58 -17 134 -25 170 -10 42 -15
112 -15 195 l1 130 13 -65 c7 -36 16 -74 20 -85z m1390 100 c31 -23 52 -79 34
-90 -4 -3 -5 -13 -2 -24 5 -20 -42 -65 -58 -55 -5 3 -9 0 -9 -5 0 -6 -12 -11
-26 -11 -43 0 -94 35 -94 64 0 9 -4 16 -8 16 -4 0 -7 10 -6 23 2 38 22 75 43
82 12 3 21 11 21 16 0 19 73 9 105 -16z m136 -141 c1 -92 -3 -178 -10 -204 -6
-25 -14 -54 -17 -65 -20 -78 -28 -169 -16 -192 11 -21 3 -21 -195 -9 -13 0
-23 4 -23 8 0 4 -25 5 -55 2 -54 -4 -54 -4 -44 19 8 17 5 42 -10 102 -42 160
-25 184 139 199 168 16 202 51 216 219 4 48 8 86 11 84 2 -2 4 -76 4 -163z
m-1712 -139 c-4 -5 -8 -21 -8 -35 -2 -69 -11 -135 -22 -155 -3 -5 -5 -36 -5
-68 1 -65 16 -59 -136 -59 -49 0 -88 -4 -88 -8 0 -5 -19 -8 -42 -7 l-43 2 -1
42 c-1 22 -9 71 -19 108 -20 80 -13 120 23 139 15 7 70 19 122 26 125 16 140
25 181 96 15 28 23 64 28 124 6 85 6 85 11 -55 3 -77 3 -144 -1 -150z m-148
236 c20 -20 29 -39 29 -61 0 -64 -76 -109 -133 -78 -52 27 -68 67 -46 111 32
63 102 75 150 28z m-490 -13 c43 -48 5 -131 -60 -131 -45 0 -91 38 -91 76 0
40 8 52 45 72 37 19 81 13 106 -17z m3097 -18 c60 -37 66 -112 12 -150 -15
-11 -40 -20 -55 -20 -38 0 -82 35 -90 70 -12 53 34 117 85 119 8 1 30 -8 48
-19z m-353 -85 c36 -35 33 -79 -6 -116 -40 -37 -73 -37 -110 0 -37 38 -38 79
-3 115 35 35 86 35 119 1z m-219 -135 c22 -61 72 -95 154 -103 136 -15 156
-31 146 -116 -4 -29 -11 -62 -17 -74 -6 -11 -9 -39 -7 -62 l5 -42 -36 8 c-35
8 -64 13 -162 23 -76 8 -79 11 -79 75 0 31 -4 72 -9 91 -17 61 -31 254 -24
306 l8 49 6 -65 c4 -36 10 -76 15 -90z m-1797 15 c1 -22 5 -56 10 -75 6 -19
13 -60 16 -90 4 -30 10 -73 14 -96 l8 -41 -35 4 c-19 2 -40 -1 -47 -7 -30 -25
-33 14 -9 150 13 74 24 160 25 190 1 43 3 50 9 30 4 -14 8 -43 9 -65z m1721
-145 c14 -107 26 -172 35 -192 5 -14 2 -18 -16 -20 -51 -3 -90 -1 -96 6 -4 4
1 60 11 124 10 64 23 153 29 197 l11 80 8 -60 c5 -33 13 -94 18 -135z m-2367
154 c18 -9 34 -18 35 -19 12 -10 21 -96 23 -209 l2 -131 -29 -1 c-16 -1 -31
-3 -34 -4 -3 -1 -27 -4 -55 -6 -70 -5 -130 -12 -130 -14 0 -1 -12 -4 -26 -5
-25 -3 -26 -1 -25 43 0 26 -7 88 -17 139 -16 82 -16 96 -3 127 17 40 38 53
126 77 82 22 94 23 133 3z m3129 -38 c10 10 51 -72 53 -106 1 -22 5 -43 9 -47
8 -9 8 -128 -1 -137 -11 -11 -13 -139 -1 -153 7 -9 4 -11 -14 -7 -12 2 -39 7
-58 9 -19 2 -46 7 -60 10 -14 3 -47 8 -74 11 -28 3 -53 7 -56 9 -3 2 -33 7
-65 10 -33 4 -62 10 -65 14 -3 4 -15 6 -28 5 -18 -1 -21 2 -16 20 3 11 12 28
18 36 7 8 18 29 25 45 l14 30 8 -30 c5 -16 10 -40 11 -52 1 -13 6 -23 10 -23
4 0 8 -7 8 -15 0 -23 15 -18 30 10 11 20 11 37 1 93 -26 146 -12 207 53 236
84 37 119 45 163 35 18 -4 33 -5 35 -3z"/>
<path d="M3018 2335 c-3 -3 -45 -9 -94 -13 l-89 -7 -2 -104 -2 -103 125 4 c68
3 127 7 130 11 4 3 3 54 -1 112 l-7 105 -27 0 c-15 0 -30 -2 -33 -5z m39 -104
l3 -78 -78 -9 c-114 -14 -112 -15 -112 67 0 79 -6 74 116 88 38 5 69 9 69 10
0 0 1 -35 2 -78z"/>
<path d="M3850 1988 c0 -35 3 -80 7 -101 6 -40 17 -48 88 -68 17 -4 39 -10 50
-14 18 -6 20 -2 19 52 -2 122 -1 119 -41 138 -21 9 -54 25 -74 36 -20 10 -39
19 -43 19 -3 0 -6 -28 -6 -62z"/>
<path d="M4082 1850 c3 -84 4 -90 24 -90 11 0 24 -3 28 -7 7 -7 22 -11 70 -18
27 -5 28 -4 22 26 -3 17 -6 53 -6 79 0 46 -2 49 -30 55 -16 4 -30 11 -30 17 0
6 -3 9 -6 5 -4 -3 -19 0 -35 8 -15 8 -31 15 -34 15 -4 0 -5 -40 -3 -90z"/>
<path d="M3624 1781 c5 -66 16 -144 20 -148 1 -2 16 -4 32 -7 16 -2 36 -6 44
-9 8 -3 32 -8 53 -11 l39 -5 -5 89 c-5 98 -9 110 -37 110 -10 0 -22 5 -25 10
-3 6 -17 10 -30 10 -13 0 -26 4 -29 9 -3 5 -20 11 -37 13 l-31 5 6 -66z m97 1
c46 -20 47 -21 54 -79 7 -61 6 -70 -10 -64 -5 2 -30 6 -55 8 -25 3 -46 6 -48
8 -1 1 -4 31 -6 66 -1 35 -6 72 -11 82 -7 16 -5 18 11 9 10 -5 40 -19 65 -30z"/>
<path d="M3869 1752 c-1 -4 -1 -11 0 -16 3 -13 12 -124 12 -153 1 -13 4 -23 8
-24 7 -1 25 -5 61 -14 57 -15 100 -15 100 -1 0 8 -4 17 -8 20 -4 2 -9 30 -10
62 -2 61 -14 84 -43 84 -19 0 -25 2 -86 33 -18 9 -34 13 -34 9z m63 -45 c7 -8
18 -12 25 -10 6 2 21 -5 32 -16 10 -10 21 -18 23 -16 2 2 3 -22 3 -54 0 -39
-4 -58 -12 -58 -7 0 -13 3 -13 7 0 4 -8 7 -17 7 -71 0 -72 1 -68 38 3 19 1 35
-4 35 -9 0 -13 59 -5 72 7 12 21 10 36 -5z"/>
<path d="M4106 1618 c2 -18 7 -54 11 -80 5 -45 8 -48 42 -55 20 -4 39 -6 44
-5 4 1 7 -2 7 -7 0 -5 8 -8 18 -6 9 2 20 4 23 4 6 1 6 10 -5 93 -4 37 -28 73
-39 61 -4 -3 -24 2 -47 11 -55 22 -60 21 -54 -16z"/>
</g>
</svg>
