<?xml version="1.0" standalone="no"?>
<!DOCTYPE svg PUBLIC "-//W3C//DTD SVG 20010904//EN"
 "http://www.w3.org/TR/2001/REC-SVG-20010904/DTD/svg10.dtd">
<svg version="1.0" xmlns="http://www.w3.org/2000/svg"
 width="1600.000000pt" height="1600.000000pt" viewBox="0 0 1600.000000 1600.000000"
 preserveAspectRatio="xMidYMid meet">
<metadata>
Created by potrace 1.15, written by Peter Selinger 2001-2017
</metadata>
<g transform="translate(0.000000,1600.000000) scale(0.100000,-0.100000)"
fill="#000000" stroke="none">
<path d="M7239 12706 c-3 -4 -33 -10 -99 -21 -8 -1 -23 -6 -32 -10 -10 -4 -25
-5 -33 -1 -8 3 -15 2 -15 -3 0 -5 -35 -14 -77 -21 -43 -8 -85 -15 -93 -18 -8
-2 -24 -5 -36 -6 -11 -1 -24 -5 -30 -9 -5 -3 -50 -13 -99 -21 -50 -9 -101 -19
-115 -22 -14 -4 -35 -7 -47 -8 -13 0 -23 -4 -23 -7 0 -3 -33 -11 -72 -18 -40
-7 -101 -19 -136 -27 -34 -8 -67 -12 -72 -9 -6 3 -10 2 -10 -3 0 -5 -33 -15
-72 -22 -40 -7 -84 -15 -98 -17 -14 -3 -32 -7 -40 -8 -8 -1 -22 -5 -30 -8 -22
-9 -126 -28 -136 -26 -5 1 -16 0 -24 -4 -13 -5 -74 -18 -105 -22 -5 -1 -17 -5
-25 -8 -13 -5 -139 -32 -205 -43 -11 -2 -72 -15 -135 -29 -121 -26 -170 -35
-207 -38 -13 -1 -23 -5 -23 -8 0 -3 -33 -11 -72 -18 -40 -7 -86 -17 -103 -22
l-30 -9 0 -147 c-1 -155 -12 -609 -20 -798 -2 -60 -5 -115 -5 -121 0 -19 -307
-197 -322 -187 -6 3 -9 2 -5 -3 6 -10 -277 -177 -299 -177 -7 0 -11 -3 -9 -6
2 -4 -210 -130 -471 -280 l-475 -275 3 -813 c2 -644 6 -813 16 -813 6 0 60 28
118 62 l106 63 -6 194 c-4 107 -3 416 0 686 l7 492 166 104 c91 57 395 249
676 426 l510 322 7 -62 c5 -34 8 -188 9 -342 1 -154 2 -456 2 -672 1 -215 5
-395 10 -399 4 -4 7 -175 7 -380 0 -370 3 -400 33 -376 7 5 30 12 52 16 l40 7
-42 -22 c-104 -52 -185 -187 -184 -306 0 -63 39 -181 67 -204 8 -6 14 -15 14
-20 0 -13 47 -57 101 -93 l50 -34 -63 -12 c-35 -6 -72 -13 -83 -13 -11 -1 -22
-5 -25 -9 -3 -3 -40 -11 -82 -17 -75 -10 -148 -37 -148 -53 0 -5 -12 -13 -26
-18 -14 -6 -28 -19 -31 -30 -3 -11 -9 -18 -13 -15 -5 3 -23 -15 -41 -40 -18
-25 -37 -45 -42 -45 -5 0 -7 -6 -4 -14 3 -8 2 -16 -3 -18 -12 -4 -30 -97 -30
-154 0 -24 -3 -44 -7 -44 -5 0 -6 29 -5 65 2 37 0 65 -6 65 -5 0 -12 22 -15
48 -10 88 -122 282 -163 282 -8 0 -14 4 -14 8 0 9 -81 58 -91 55 -3 -1 -28 5
-54 13 -27 7 -83 14 -127 14 -79 0 -96 7 -56 25 13 6 28 20 34 33 6 12 18 28
26 35 15 11 20 28 35 100 3 15 9 27 14 27 5 0 9 25 9 55 0 30 -4 55 -8 55 -5
0 -15 25 -22 55 -8 34 -24 67 -42 85 -15 16 -28 34 -28 40 0 5 -8 10 -17 10
-9 0 -24 7 -34 16 -30 28 -91 43 -169 43 -86 1 -149 -12 -161 -31 -5 -7 -9 -9
-9 -3 0 5 -7 -1 -16 -13 -8 -12 -20 -20 -25 -17 -5 4 -12 -2 -16 -12 -3 -10
-17 -30 -29 -45 -32 -39 -64 -131 -64 -183 0 -25 9 -68 20 -96 19 -51 67 -131
83 -138 5 -2 22 -16 39 -32 16 -17 43 -32 59 -36 33 -6 39 -23 9 -23 -25 0
-158 -46 -175 -60 -6 -5 -15 -7 -18 -3 -4 3 -7 1 -7 -5 0 -6 -10 -14 -22 -18
-22 -6 -147 -125 -149 -142 -6 -33 -9 -58 -15 -137 -4 -49 -10 -94 -14 -100
-16 -20 4 -345 30 -490 12 -70 68 -293 79 -313 4 -9 11 -30 15 -45 6 -25 5
-28 -14 -22 -12 4 -20 2 -20 -5 0 -7 -13 -10 -33 -9 -18 2 -37 0 -42 -3 -6 -3
-37 -9 -70 -13 -33 -4 -76 -10 -95 -12 -19 -3 -48 -7 -65 -8 -16 -2 -38 -6
-48 -10 -9 -4 -28 -4 -42 -1 -15 4 -25 2 -25 -5 0 -6 -14 -9 -33 -8 -18 2 -37
0 -42 -3 -6 -3 -33 -8 -62 -12 -29 -3 -74 -11 -101 -16 -27 -6 -53 -10 -58 -9
-5 1 -16 -1 -24 -4 -8 -3 -67 -13 -130 -22 -63 -9 -128 -19 -145 -22 -16 -3
-42 -6 -57 -6 -16 -1 -28 -4 -28 -7 0 -5 -70 -18 -195 -36 -11 -2 -54 -10 -95
-19 -41 -9 -82 -14 -92 -12 -10 3 -18 1 -18 -3 0 -4 -24 -11 -52 -15 -29 -4
-62 -10 -73 -12 -11 -3 -29 -6 -40 -8 -11 -1 -28 -6 -37 -10 -10 -4 -24 -5
-32 -2 -8 3 -16 3 -18 -1 -4 -10 -218 -53 -229 -46 -5 3 -9 1 -9 -4 0 -7 -46
-18 -200 -46 -8 -1 -35 -8 -59 -15 -23 -7 -49 -10 -57 -7 -8 3 -14 2 -14 -3 0
-5 -28 -14 -63 -21 -34 -7 -71 -14 -82 -17 -11 -3 -29 -5 -40 -6 -11 0 -22 -4
-25 -7 -3 -3 -75 -23 -160 -44 -203 -49 -340 -88 -340 -96 0 -8 69 -4 93 5 9
4 33 5 52 3 19 -2 35 -1 35 3 0 3 35 9 77 13 78 8 112 12 188 22 22 3 58 7 80
8 22 2 47 6 55 9 8 3 69 11 135 17 66 6 136 14 155 16 19 3 53 7 75 8 22 1 48
6 58 11 10 4 33 5 52 2 20 -3 37 -1 41 5 4 6 27 8 55 6 27 -3 49 -2 49 2 0 4
42 10 93 14 50 5 106 10 122 12 84 11 155 17 200 18 28 1 52 4 55 7 3 3 77 11
165 18 88 7 174 14 190 16 83 10 166 19 220 22 52 3 262 21 460 39 124 11 202
17 270 21 39 2 122 8 185 13 132 10 302 22 375 27 28 1 91 6 140 9 50 4 133 8
185 9 53 0 100 4 105 7 6 3 89 9 185 12 96 4 211 10 255 13 44 3 121 7 170 9
50 2 149 7 220 11 72 3 195 7 275 8 80 1 152 4 160 8 28 11 1628 42 2165 42
551 0 2127 -31 2155 -43 8 -3 80 -6 160 -7 80 -1 206 -5 280 -9 74 -3 167 -8
205 -9 299 -13 613 -30 625 -34 8 -3 58 -6 110 -8 52 -1 133 -5 180 -9 92 -7
89 -7 390 -25 113 -7 212 -15 220 -18 8 -3 47 -7 85 -8 39 -1 102 -5 140 -9
133 -12 151 -14 320 -26 94 -6 177 -14 185 -17 8 -2 42 -6 75 -8 33 -2 85 -6
115 -9 30 -3 80 -7 110 -10 30 -3 73 -7 95 -10 22 -3 83 -8 135 -12 52 -4 99
-9 103 -11 5 -3 32 -6 60 -8 49 -2 112 -9 182 -19 17 -2 70 -7 118 -11 48 -5
90 -12 93 -16 2 -4 20 -5 39 -2 19 3 42 2 52 -2 10 -4 38 -8 63 -10 25 -1 61
-5 80 -8 19 -3 85 -10 145 -17 61 -6 117 -15 126 -20 8 -4 27 -6 42 -3 15 3
35 2 44 -2 10 -5 34 -9 53 -11 42 -3 117 -12 145 -18 11 -2 55 -7 98 -11 42
-4 77 -10 77 -14 0 -4 18 -5 40 -3 22 2 40 0 40 -6 0 -5 11 -7 25 -4 13 2 33
1 42 -3 10 -5 32 -9 48 -11 17 -1 73 -9 125 -17 52 -8 97 -13 100 -10 9 8 -25
22 -87 34 -35 7 -63 16 -63 21 0 4 -6 5 -14 2 -7 -3 -56 6 -109 20 -53 13
-116 28 -141 31 -25 4 -46 12 -46 17 0 5 -5 6 -10 3 -6 -4 -34 0 -63 9 -28 8
-73 18 -99 21 -27 4 -48 11 -48 16 0 5 -6 6 -14 3 -8 -3 -33 0 -57 6 -60 17
-366 81 -411 87 -21 3 -38 9 -38 14 0 4 -7 6 -15 3 -8 -4 -23 -3 -32 1 -10 5
-28 7 -40 6 -13 -1 -23 2 -23 7 0 6 -10 10 -22 10 -13 1 -32 3 -43 5 -11 2
-40 7 -64 12 -74 13 -73 8 -54 227 24 278 24 789 0 916 -9 52 -15 98 -12 103
4 5 1 9 -5 9 -7 0 -9 8 -5 20 3 11 3 20 -2 20 -5 0 -15 21 -22 48 -18 60 -112
172 -145 172 -13 0 -26 3 -30 7 -4 5 -12 9 -17 9 -5 1 -12 3 -16 4 -5 1 -38 1
-75 0 -50 -1 -68 2 -68 11 0 9 -4 8 -12 -3 -12 -15 -99 -25 -178 -19 -24 2
-24 2 -5 13 58 33 134 118 135 151 0 9 5 17 12 17 6 0 9 3 5 6 -3 4 0 22 8 41
18 42 20 151 3 190 -6 15 -11 31 -10 36 1 4 -2 7 -8 7 -6 0 -9 3 -8 8 2 13
-21 62 -30 62 -5 0 -14 11 -20 25 -7 14 -20 29 -29 32 -10 4 -27 15 -38 25
-17 16 -74 37 -115 42 -8 2 -23 6 -33 10 -15 7 -37 6 -117 -8 -63 -12 -116
-31 -128 -48 -7 -10 -22 -18 -33 -18 -10 0 -19 -6 -19 -13 0 -7 -13 -29 -30
-47 -16 -18 -30 -42 -30 -51 0 -10 -4 -20 -10 -24 -5 -3 -7 -12 -3 -20 3 -8 0
-15 -6 -15 -7 0 -11 -35 -11 -105 0 -63 4 -105 10 -105 6 0 9 -3 8 -7 -1 -5 6
-26 17 -48 28 -59 119 -144 174 -163 42 -15 43 -17 19 -20 -16 -2 -28 -8 -28
-13 0 -5 -7 -9 -15 -9 -22 0 -78 -30 -88 -46 -4 -8 -14 -14 -22 -14 -8 0 -25
-10 -38 -22 -14 -13 -42 -39 -63 -58 -44 -39 -43 -37 -55 -145 -5 -44 -13 -81
-19 -83 -14 -5 -14 -482 0 -482 6 0 10 -15 10 -34 0 -36 26 -169 40 -201 5
-11 18 -53 30 -92 11 -40 25 -73 30 -73 27 0 87 292 63 309 -5 3 -17 67 -28
141 -10 74 -22 138 -27 141 -13 9 -14 259 -1 267 5 4 15 22 21 41 7 19 20 43
29 53 9 10 13 18 10 18 -3 0 8 14 25 30 16 17 32 30 35 30 4 0 21 11 40 26 18
14 38 22 43 19 6 -3 10 -2 10 3 0 13 100 53 137 55 18 1 33 5 33 8 0 9 157 54
174 50 4 -1 13 3 20 8 16 14 96 11 96 -3 0 -7 3 -8 8 -1 10 15 29 13 90 -10
29 -11 55 -28 58 -37 3 -10 10 -18 16 -18 19 0 76 -83 96 -140 12 -35 30 -118
39 -175 2 -16 7 -48 11 -70 7 -46 7 -407 0 -475 -12 -111 -19 -164 -28 -211
-17 -89 -12 -161 14 -212 15 -30 19 -47 11 -47 -6 0 -15 3 -19 8 -4 4 -17 7
-29 8 -50 3 -247 39 -247 45 0 4 -9 5 -20 2 -11 -3 -28 -2 -37 3 -10 4 -27 8
-38 9 -11 1 -33 5 -50 9 -16 3 -69 11 -117 18 -49 6 -88 15 -88 19 0 4 -9 5
-20 2 -11 -3 -28 -2 -37 2 -10 5 -29 9 -43 11 -14 1 -38 5 -55 8 -16 3 -68 11
-115 16 -47 6 -92 14 -100 17 -8 3 -26 7 -40 9 -60 8 -97 13 -123 18 -16 3
-60 8 -98 12 -38 4 -69 10 -69 14 0 4 -11 5 -25 2 -13 -2 -33 -1 -42 3 -10 4
-34 9 -53 11 -19 1 -46 4 -60 7 -14 2 -78 10 -142 17 -65 8 -118 17 -118 22 0
4 -13 5 -30 2 -16 -4 -37 -3 -47 1 -10 4 -34 9 -53 11 -19 2 -48 5 -65 8 -16
2 -65 7 -107 12 -43 4 -78 11 -78 16 0 5 -13 7 -30 3 -20 -4 -30 -3 -30 5 0 6
4 9 8 6 5 -3 7 57 6 132 -2 110 -9 166 -34 282 -18 80 -31 160 -31 178 1 17
-2 32 -7 32 -5 0 -12 42 -16 93 -4 50 -10 126 -14 167 -19 210 0 649 30 687 6
7 8 29 6 48 -2 19 -1 35 3 35 4 0 10 17 12 38 2 20 4 -51 5 -159 2 -200 18
-410 32 -419 4 -3 11 -20 15 -39 17 -79 55 -141 133 -213 25 -24 144 -77 184
-83 18 -2 83 -11 143 -20 61 -8 130 -17 155 -20 110 -10 195 -43 242 -92 32
-34 58 -109 58 -167 0 -51 -39 -259 -50 -266 -16 -11 -43 -119 -44 -175 -1
-65 18 -125 40 -125 20 0 154 251 169 318 3 18 11 32 17 32 6 0 8 11 6 25 -3
13 0 26 5 28 16 5 22 240 8 303 -7 30 -17 54 -22 54 -5 0 -9 6 -9 14 0 7 -9
25 -21 40 -11 14 -17 26 -13 26 4 0 -24 22 -62 50 -38 27 -75 55 -82 61 -15
12 -99 38 -149 46 -18 3 -33 9 -33 14 0 5 -3 8 -7 8 -28 -5 -93 3 -93 10 0 8
35 22 44 18 7 -3 126 124 126 134 0 6 6 16 13 24 22 21 40 129 34 194 -8 97
-79 218 -138 236 -10 4 -19 10 -19 14 0 12 -46 29 -110 41 -62 12 -213 -5
-234 -25 -7 -7 -21 -15 -31 -19 -27 -9 -58 -36 -79 -69 -10 -15 -26 -27 -36
-27 -14 0 -18 13 -24 73 -10 114 23 412 47 428 6 4 7 14 4 23 -4 9 -3 16 2 16
7 0 24 116 37 256 9 98 -6 138 -59 165 -47 25 -101 22 -141 -7 -26 -20 -110
-177 -121 -229 -4 -16 -11 -39 -15 -50 -8 -16 -57 -193 -65 -230 -1 -5 -7 -28
-13 -50 -6 -22 -16 -89 -23 -150 -7 -60 -17 -113 -22 -116 -10 -7 -15 -409 -9
-602 3 -80 47 -438 66 -537 3 -14 12 -63 20 -110 8 -47 28 -142 45 -212 17
-69 31 -129 31 -133 0 -4 -15 -4 -32 -1 -18 3 -53 8 -78 10 -100 9 -156 16
-180 23 -14 3 -35 5 -48 4 -12 -1 -35 3 -51 10 -29 13 -29 14 -13 44 11 20 16
58 16 117 1 49 4 88 9 88 4 0 7 19 7 43 0 65 32 271 43 278 5 4 7 19 5 33 -3
14 -2 26 1 26 7 0 41 198 41 238 0 12 5 22 11 22 7 0 10 15 7 40 -2 22 -1 40
3 40 28 0 44 773 19 975 -6 50 -13 126 -17 170 -3 44 -9 82 -13 85 -3 3 -14
59 -24 125 -10 66 -21 121 -25 123 -5 1 -6 14 -3 28 3 15 0 29 -5 33 -5 3 -19
55 -31 115 -12 61 -26 112 -31 115 -5 3 -17 39 -26 79 -10 39 -21 72 -26 72
-5 0 -6 7 -3 15 4 8 1 15 -5 15 -6 0 -11 7 -11 16 0 25 -77 93 -113 99 -78 15
-168 -30 -201 -100 -18 -37 -21 -122 -7 -175 6 -19 12 -48 14 -65 3 -16 10
-43 16 -59 14 -35 28 -96 36 -160 4 -26 13 -62 20 -80 18 -43 45 -283 50 -436
5 -192 -7 -219 -55 -124 -14 27 -28 50 -31 52 -4 2 -26 21 -50 42 -50 45 -173
98 -246 106 -50 6 -142 -14 -171 -38 -12 -10 -16 -10 -19 -1 -3 8 -15 2 -35
-15 -16 -15 -33 -27 -36 -27 -12 -1 -82 -71 -82 -82 0 -7 -6 -18 -13 -25 -31
-33 -41 -76 -44 -195 -3 -127 11 -198 42 -216 8 -4 15 -15 15 -23 0 -19 80
-104 98 -104 7 0 15 -7 18 -15 4 -8 14 -15 23 -16 18 -1 -39 -18 -79 -24 -35
-5 -106 -22 -165 -40 -27 -9 -51 -15 -52 -15 -20 2 -34 -3 -53 -20 -13 -11
-34 -23 -47 -26 -13 -4 -23 -10 -23 -14 0 -12 -29 -40 -41 -40 -12 0 1 113 14
121 5 4 8 27 6 53 -2 25 -1 46 2 46 15 0 34 378 34 680 -1 263 -5 361 -22 515
-30 261 -30 263 -54 394 -12 64 -22 127 -24 141 -2 14 -15 74 -29 133 -15 59
-24 112 -21 117 4 6 3 15 0 20 -3 6 -8 52 -10 103 -2 50 -5 110 -7 132 -2 22
-5 96 -6 164 l-2 124 -80 -6 -81 -6 -39 35 c-22 20 -40 33 -40 29 0 -4 -7 -2
-16 6 -9 8 -41 12 -80 12 -53 0 -70 -5 -98 -26 -31 -24 -65 -86 -48 -88 4 0
-17 -7 -47 -15 -30 -8 -62 -12 -72 -9 -9 3 -20 1 -24 -5 -3 -5 -15 -10 -26
-10 -18 0 -19 -9 -19 -265 l0 -265 70 -2 c39 -1 87 -2 108 -2 43 -1 47 -6 56
-66 4 -25 11 -56 15 -70 54 -165 72 -481 37 -640 -22 -100 -54 -216 -55 -202
-2 21 -4 27 -18 40 -7 7 -18 21 -25 30 -23 31 -142 129 -165 136 -13 4 -23 12
-23 17 0 5 -8 9 -18 9 -10 0 -23 5 -29 11 -12 12 -233 28 -239 17 -3 -5 -19
-8 -36 -8 -30 0 -130 -53 -177 -94 -14 -12 -21 -14 -16 -6 5 10 1 8 -13 -4
-12 -11 -22 -25 -22 -32 0 -7 -10 -20 -22 -29 -13 -8 -24 -20 -24 -25 -1 -6
-2 -14 -3 -20 -1 -13 -128 -13 -136 0 -3 5 -25 7 -50 3 -24 -3 -52 -2 -62 2
-10 4 -38 9 -63 11 -100 7 -101 7 -95 31 3 12 1 25 -5 28 -5 3 -10 46 -10 94
l0 89 68 -6 c37 -2 68 -8 70 -11 1 -3 23 -4 48 -2 25 2 50 -1 56 -7 5 -5 26
-8 47 -5 25 3 41 0 49 -9 6 -8 12 -56 14 -109 l3 -94 87 85 88 85 7 328 c4
238 3 333 -5 350 -9 16 -12 294 -14 1014 l-3 993 135 -5 c74 -2 196 -6 270 -9
74 -2 173 -7 220 -10 47 -3 209 -8 360 -11 151 -4 282 -9 290 -12 8 -4 85 -7
170 -8 85 -1 232 -5 325 -9 94 -4 211 -8 260 -9 l90 -2 1 -30 c0 -17 3 -35 6
-40 3 -6 9 -68 13 -140 4 -71 9 -150 11 -175 3 -25 7 -76 10 -115 11 -149 16
-216 29 -390 14 -194 26 -343 31 -415 2 -25 8 -92 14 -150 6 -58 10 -125 8
-151 -1 -25 1 -49 4 -55 5 -8 18 -198 23 -319 2 -61 9 -66 55 -44 21 10 46 19
54 19 8 0 18 5 21 10 4 6 11 8 16 5 5 -4 9 -2 9 4 0 5 15 15 34 22 31 11 34
16 40 62 3 31 1 56 -5 64 -7 8 -10 36 -7 68 3 31 1 58 -4 61 -5 3 -8 36 -7 73
1 38 0 72 -3 77 -3 5 -9 59 -13 119 -4 61 -9 130 -12 155 -4 49 -12 147 -20
250 -2 36 -8 110 -13 165 -9 100 -20 241 -26 325 -2 25 -6 77 -10 115 -4 39
-8 101 -10 138 -1 38 -5 71 -8 74 -3 4 -6 20 -6 36 0 23 4 28 18 24 9 -3 116
-52 237 -110 330 -156 387 -183 545 -257 251 -117 309 -147 302 -155 -4 -5 -2
-5 5 -2 10 6 620 -274 633 -291 3 -4 12 -8 20 -9 14 -1 154 -66 695 -323 61
-29 129 -61 153 -71 23 -10 42 -22 42 -28 0 -14 23 -239 36 -351 34 -296 55
-492 59 -555 1 -22 5 -47 8 -55 3 -8 11 -76 17 -150 6 -74 13 -148 16 -165 5
-35 13 -109 20 -180 3 -27 9 -86 15 -130 5 -44 8 -95 7 -112 -2 -18 -1 -33 3
-33 3 0 10 -37 14 -82 4 -46 10 -101 12 -123 3 -22 6 -60 8 -85 1 -25 5 -52 8
-60 3 -8 10 -73 17 -145 6 -71 13 -146 16 -165 3 -19 5 -59 5 -88 1 -60 0 -58
112 -114 37 -19 64 -37 61 -41 -4 -4 1 -7 11 -7 16 0 17 8 10 103 -4 56 -9
116 -11 132 -10 91 -17 176 -19 226 -1 30 -5 61 -9 67 -4 7 -6 38 -5 70 1 32
0 63 -3 68 -3 5 -9 59 -13 121 -3 62 -8 129 -10 150 -16 142 -19 185 -20 236
0 31 -4 57 -8 57 -5 0 -7 32 -5 70 2 39 0 71 -3 73 -4 1 -10 49 -13 107 -4 58
-9 123 -12 145 -2 22 -6 67 -9 100 -3 33 -10 110 -16 170 -6 61 -9 125 -7 142
2 18 1 34 -3 35 -3 2 -10 50 -14 108 -4 58 -9 121 -11 140 -3 36 -5 54 -28
332 -8 86 -17 161 -20 167 -4 6 -14 11 -22 11 -9 0 -12 5 -8 12 4 6 3 8 -3 5
-10 -6 -68 20 -438 198 -77 37 -185 89 -240 115 -146 69 -290 138 -460 220
-82 40 -199 96 -260 125 -60 29 -173 83 -250 120 -77 37 -189 91 -250 120 -60
29 -168 81 -240 115 -71 34 -184 88 -250 120 -66 32 -183 88 -260 125 -254
122 -228 114 -412 122 -89 3 -163 9 -163 13 0 4 -42 5 -94 2 -52 -2 -103 -1
-113 3 -10 4 -61 9 -113 11 -127 4 -250 11 -335 17 -38 3 -149 9 -245 12 -96
4 -182 9 -190 12 -8 3 -60 6 -115 8 -55 1 -147 5 -205 9 -58 3 -139 8 -180 10
-41 2 -109 6 -150 9 -41 3 -147 9 -235 13 -155 6 -162 7 -220 39 -84 45 -186
99 -357 189 -82 43 -148 82 -148 87 0 6 -4 8 -8 5 -5 -3 -76 31 -158 74 -132
71 -197 94 -215 76z m331 -366 l220 -110 0 -116 c0 -89 -3 -115 -12 -111 -7 3
-103 40 -213 83 -110 42 -203 80 -207 83 -7 6 -17 281 -10 281 1 0 101 -50
222 -110z m-490 -20 c0 -113 0 -116 -17 -114 -7 1 -13 -3 -13 -8 0 -6 -11 -8
-25 -6 -13 3 -26 2 -27 -1 -3 -7 -103 -34 -220 -61 l-78 -18 -1 37 c0 20 -2
67 -4 104 -3 65 -2 69 22 78 14 5 37 11 52 13 14 2 34 7 43 11 9 4 21 4 27 1
5 -3 11 -3 13 1 3 7 182 58 216 62 9 1 12 -25 12 -99z m-430 40 c0 -12 -50
-33 -58 -25 -3 2 -11 0 -18 -6 -8 -6 -20 -9 -28 -6 -8 3 -16 3 -18 -1 -2 -4
-75 -25 -163 -46 -88 -22 -166 -41 -172 -44 -18 -6 -17 37 1 44 7 3 24 6 37 8
13 2 32 7 42 11 9 4 24 5 32 1 8 -3 15 -2 15 3 0 4 30 14 68 20 88 16 97 18
162 35 67 17 100 19 100 6z m-1 -72 c1 -13 4 -56 7 -96 6 -79 -5 -107 -38 -99
-10 3 -18 1 -18 -5 0 -6 -11 -8 -25 -6 -15 3 -22 1 -18 -5 4 -6 -4 -8 -20 -5
-15 3 -28 2 -29 -2 -3 -5 -206 -57 -298 -76 -30 -6 -33 -5 -22 9 9 10 10 17 2
22 -5 3 -10 42 -10 90 l0 84 43 11 c23 6 66 18 95 27 29 8 59 12 67 9 7 -2 15
-2 17 2 3 8 193 59 224 61 16 1 22 -5 23 -21z m-509 -48 c0 -11 -7 -21 -15
-21 -8 -1 -21 -2 -27 -3 -7 -1 -16 -4 -19 -9 -3 -4 -23 -8 -45 -10 -21 -1 -41
-5 -44 -8 -3 -3 -66 -20 -140 -38 -126 -29 -230 -55 -273 -68 -16 -4 -18 0
-15 28 3 32 5 34 60 45 32 6 60 9 63 6 2 -3 11 1 20 8 8 7 22 10 30 6 8 -3 15
-2 15 3 0 5 35 14 78 21 92 16 86 15 141 29 23 7 46 10 49 7 3 -3 11 -1 19 5
7 6 22 9 33 6 11 -3 20 -1 20 4 0 5 11 9 25 9 18 0 25 -5 25 -20z m1841 -108
l134 -69 3 -91 c2 -67 -1 -92 -9 -92 -22 0 -79 24 -79 33 0 4 -4 6 -9 3 -13
-8 -123 39 -114 49 5 4 3 5 -4 1 -7 -3 -26 -1 -44 6 l-31 13 -2 108 c-1 74 2
107 10 107 7 0 72 -31 145 -68z m-1841 -50 l0 -107 -136 -33 c-74 -18 -140
-29 -146 -26 -7 5 -8 2 -3 -6 6 -10 1 -12 -18 -8 -15 3 -28 2 -29 -1 -5 -10
-229 -64 -236 -56 -4 3 -7 52 -7 108 0 99 1 102 23 101 12 0 22 3 22 7 0 4 17
10 38 14 20 3 111 25 202 47 91 22 175 40 188 40 12 0 22 5 22 10 0 6 11 7 25
4 14 -4 25 -2 25 4 0 5 7 10 15 10 12 0 15 -19 15 -108z m949 -53 l1 -106 -26
5 c-14 2 -35 0 -47 -7 -18 -9 -174 -47 -227 -56 -8 -1 -23 -5 -32 -9 -9 -4
-21 -5 -27 -2 -5 3 -11 0 -14 -6 -10 -29 -15 3 -19 114 l-3 116 102 27 c56 15
107 24 112 21 5 -4 11 -2 13 3 1 4 37 15 78 23 92 18 88 23 89 -123z m422 51
c85 -34 181 -71 214 -84 l60 -24 3 -102 3 -102 -23 8 c-13 3 -25 9 -28 13 -3
3 -14 7 -25 7 -23 2 -195 53 -210 62 -5 4 -14 7 -20 8 -5 1 -38 9 -72 19 l-63
18 0 118 c0 66 2 119 4 119 2 0 73 -27 157 -60z m-1981 21 c0 -28 -2 -29 -91
-50 -50 -11 -95 -18 -100 -15 -5 3 -9 0 -9 -7 0 -6 -8 -9 -20 -6 -11 3 -20 2
-20 -3 0 -4 -18 -10 -40 -14 -28 -4 -40 -11 -40 -22 0 -17 23 -16 85 1 86 23
212 55 220 55 6 0 10 -42 10 -106 l0 -107 -50 -13 c-27 -7 -52 -10 -54 -8 -2
2 -10 -1 -17 -7 -8 -6 -32 -12 -54 -12 -22 -1 -40 -5 -40 -9 0 -5 -6 -8 -12
-8 -27 0 -88 -21 -88 -30 0 -15 49 -12 115 6 33 9 69 17 80 18 11 0 22 3 25 7
3 3 26 10 51 15 l47 11 7 -115 c8 -121 3 -138 -37 -128 -9 2 -18 1 -20 -3 -4
-10 -228 -65 -235 -58 -7 8 -33 -18 -33 -33 0 -8 9 -10 23 -7 153 39 226 57
247 60 14 3 32 7 40 9 13 2 15 -20 16 -155 2 -157 2 -157 -21 -163 -13 -3 -28
-3 -34 0 -5 3 -11 2 -13 -2 -1 -4 -43 -18 -93 -30 -150 -37 -165 -42 -165 -59
0 -11 6 -14 23 -8 12 4 31 7 42 8 11 1 22 5 25 8 3 3 48 16 100 28 52 12 104
24 116 27 19 5 21 1 22 -43 1 -26 4 -92 8 -145 5 -98 5 -98 -20 -108 -14 -5
-37 -10 -53 -12 -15 -2 -30 -6 -33 -9 -3 -3 -54 -16 -113 -29 -102 -22 -127
-33 -113 -48 4 -3 53 5 109 18 56 13 111 23 122 24 11 0 22 3 25 7 3 4 22 10
43 14 l37 7 0 -136 0 -135 -56 -17 c-30 -8 -62 -13 -70 -10 -7 3 -14 2 -14 -3
0 -5 -19 -12 -42 -16 -24 -5 -45 -9 -48 -10 -3 -1 -25 -7 -50 -14 -77 -21 -80
-22 -80 -31 0 -10 57 -19 67 -9 7 7 190 52 265 66 l26 5 -1 -120 -2 -119 -65
-14 c-36 -8 -72 -14 -80 -14 -8 0 -18 -3 -21 -8 -3 -4 -25 -9 -50 -11 -24 -2
-51 -6 -59 -9 -8 -3 -24 -7 -35 -9 -11 -2 -21 -12 -23 -22 -5 -22 9 -20 173
19 55 13 117 27 138 30 l37 7 0 -126 c0 -82 -4 -125 -10 -121 -5 3 -10 2 -10
-3 0 -5 -21 -12 -47 -15 -27 -4 -64 -9 -83 -13 -19 -3 -44 -7 -55 -8 -11 0
-25 -4 -31 -8 -5 -4 -34 -10 -62 -14 -30 -4 -52 -12 -52 -19 0 -21 9 -22 63
-8 28 7 60 12 70 9 9 -2 17 -1 17 3 0 4 38 13 85 19 47 7 92 15 100 18 14 6
15 -6 13 -87 l-3 -94 -27 2 c-16 1 -28 -3 -28 -9 0 -6 -15 -8 -35 -6 -19 2
-35 1 -35 -2 0 -4 -44 -12 -98 -18 -106 -12 -132 -19 -132 -33 0 -13 14 -12
205 17 17 2 46 6 65 9 19 3 47 8 63 11 31 7 35 -6 15 -53 -6 -15 -16 -62 -23
-103 l-11 -75 -74 -13 c-41 -6 -87 -14 -101 -15 -14 -2 -31 -7 -38 -11 -6 -4
-21 -7 -34 -6 -32 3 -68 -11 -64 -24 4 -13 101 -7 140 9 9 4 28 4 41 1 13 -3
26 -2 28 3 2 4 28 11 58 15 55 7 55 7 56 -21 2 -32 9 -71 17 -93 3 -8 8 -30
11 -48 5 -30 4 -33 -17 -31 -12 1 -29 -1 -37 -4 -8 -3 -46 -8 -85 -12 -38 -4
-86 -9 -105 -11 -19 -3 -51 -6 -71 -7 -20 -1 -36 -7 -36 -14 0 -13 66 -23 74
-10 3 4 24 7 47 6 23 -2 46 0 51 3 6 3 51 9 102 13 l92 7 6 -38 c4 -22 10 -48
15 -59 9 -20 10 -28 13 -115 l2 -45 -43 0 c-23 0 -42 -3 -42 -6 0 -3 -35 -9
-77 -13 -43 -3 -98 -9 -123 -13 -25 -3 -59 -6 -76 -6 -42 -1 -39 -24 3 -29 19
-2 36 -1 38 3 6 8 323 34 331 26 3 -3 8 -71 11 -151 6 -137 4 -152 -23 -257
-28 -111 -29 -112 -38 -73 -4 21 -19 53 -32 71 -13 17 -24 36 -24 41 0 15 -70
82 -85 82 -8 0 -21 10 -29 22 -9 12 -16 17 -16 10 0 -9 -7 -8 -25 4 -14 9 -25
13 -25 10 0 -4 -10 -1 -22 5 -12 7 -47 11 -78 10 l-55 -2 1 183 c1 101 4 844
8 1653 4 808 9 1471 10 1473 2 1 24 4 50 5 25 1 46 5 46 8 0 7 139 34 163 31
9 -1 17 3 17 8 0 6 14 10 30 10 26 0 30 -3 30 -29z m1128 -153 l3 -115 -85
-22 c-47 -13 -90 -20 -96 -16 -5 3 -10 2 -10 -3 0 -9 -133 -42 -180 -44 -8 -1
-17 -4 -20 -8 -3 -4 -21 -10 -40 -14 l-35 -6 0 120 0 119 145 35 c80 19 170
40 200 48 30 7 63 12 73 11 9 -2 17 2 17 8 0 6 6 9 13 7 8 -3 13 -39 15 -120z
m1322 -51 l135 -53 -3 -57 c-2 -32 0 -63 5 -70 14 -18 9 -42 -7 -41 -21 2
-174 48 -180 54 -3 3 -14 6 -26 7 -11 1 -32 7 -47 12 -26 10 -27 14 -27 83 0
40 -3 83 -6 96 -4 15 -2 22 7 22 8 0 75 -24 149 -53z m-1840 -69 c0 -59 1
-111 3 -114 3 -9 -102 -36 -113 -29 -5 3 -10 1 -12 -3 -1 -5 -93 -30 -203 -56
-110 -26 -209 -49 -220 -52 -19 -4 -20 1 -23 93 -4 130 -1 140 48 153 22 6 44
8 49 5 5 -3 11 -2 13 3 3 6 308 84 382 96 16 3 31 7 33 10 3 2 14 4 24 3 17
-1 19 -10 19 -109z m955 -53 c3 -72 8 -220 10 -330 l4 -200 -33 -2 c-19 -1
-66 -11 -106 -23 -39 -12 -78 -19 -85 -16 -8 3 -15 2 -17 -2 -3 -8 -149 -45
-154 -40 -5 6 -7 298 -2 304 3 2 54 16 114 29 261 58 279 64 258 85 -6 6 -25
4 -53 -6 -24 -8 -50 -13 -57 -10 -7 3 -14 1 -16 -3 -3 -9 -237 -65 -244 -59
-2 3 -7 73 -11 156 -4 112 -3 152 5 153 15 2 23 4 42 12 37 15 273 66 281 61
5 -3 9 -1 9 5 0 7 37 20 47 16 1 -1 5 -59 8 -130z m468 36 c70 -21 124 -41
120 -45 -4 -4 -1 -4 8 -1 8 3 32 -1 54 -8 l40 -14 5 -122 c3 -67 4 -125 2
-130 -3 -10 -195 38 -200 50 -2 4 -9 6 -15 3 -7 -2 -59 9 -117 24 l-105 29 -3
140 -4 141 44 -15 c24 -8 100 -31 171 -52z m-905 -170 l-3 -159 -60 -13 c-33
-7 -66 -11 -72 -10 -7 1 -13 -3 -13 -9 0 -5 -8 -10 -18 -10 -9 0 -80 -16 -156
-35 -77 -19 -141 -35 -143 -35 -1 0 -3 71 -3 159 l0 159 46 11 c25 6 49 9 54
6 4 -3 10 -1 12 3 1 5 46 19 98 32 169 40 245 58 253 59 5 1 7 -71 5 -158z
m1269 60 c51 -16 106 -32 123 -36 16 -4 30 -11 30 -16 0 -6 5 -7 10 -4 6 4 17
1 25 -5 12 -10 15 -39 15 -127 0 -114 0 -115 -22 -110 -13 3 -49 11 -80 18
-32 7 -58 16 -58 21 0 5 -5 6 -10 3 -6 -3 -37 2 -70 12 l-60 17 0 128 c0 70 1
128 3 128 1 0 44 -13 94 -29z m-1782 -40 c3 -5 1 -12 -5 -16 -13 -8 -13 -182
0 -190 6 -3 10 -26 10 -49 l0 -43 -102 -27 c-145 -36 -240 -59 -258 -61 -9 0
-21 -5 -28 -9 -7 -4 -19 -5 -27 -2 -8 3 -15 0 -15 -5 0 -7 -11 -9 -25 -7 -14
3 -25 2 -25 -2 0 -4 -20 -11 -44 -17 l-44 -10 -7 53 c-3 29 -5 100 -4 157 l3
105 131 32 c71 17 184 45 249 61 66 16 126 27 133 25 7 -3 13 -1 13 4 0 13 37
13 45 1z m1345 -130 c3 -3 14 -7 25 -9 41 -5 75 -13 161 -38 49 -13 95 -26
102 -27 11 -3 14 -34 14 -140 0 -75 -2 -138 -4 -138 -12 -5 -148 26 -148 34 0
5 -6 7 -13 4 -11 -4 -253 46 -262 54 -3 4 -8 268 -6 290 1 8 123 -21 131 -30z
m-830 -103 c1 -13 3 -80 6 -151 6 -141 6 -140 -63 -141 -18 -1 -33 -4 -33 -7
0 -6 -112 -33 -140 -34 -8 0 -17 -3 -20 -6 -5 -5 -196 -49 -212 -49 -5 0 -8
67 -8 149 l0 148 61 17 c33 10 67 15 75 12 8 -3 14 -2 14 3 0 7 91 32 130 36
9 0 21 5 28 9 7 4 19 5 27 2 8 -3 15 0 15 5 0 6 9 9 20 6 11 -3 20 -1 20 3 0
8 16 12 66 19 7 0 13 -9 14 -21z m1301 -17 c57 -16 118 -32 135 -36 30 -6 32
-9 33 -53 0 -26 3 -88 7 -138 l5 -92 -68 16 c-37 9 -70 19 -73 22 -3 3 -25 6
-50 8 -24 2 -47 6 -50 10 -5 6 -23 11 -57 14 -19 2 -18 278 0 278 8 0 60 -13
118 -29z m-1811 -234 l0 -154 -82 -18 c-46 -10 -90 -19 -98 -19 -9 -1 -21 -6
-28 -10 -7 -4 -19 -5 -27 -2 -8 3 -15 2 -15 -2 0 -6 -157 -47 -185 -47 -5 0
-14 -3 -20 -7 -5 -3 -26 -9 -45 -13 -19 -3 -43 -9 -53 -12 -16 -4 -17 6 -15
148 l3 153 35 8 c19 4 49 10 65 14 41 8 47 10 67 18 9 4 22 5 28 1 5 -3 10 -1
10 4 0 6 8 11 18 11 9 0 61 11 115 25 54 14 103 23 108 20 5 -4 9 -1 9 6 0 7
10 9 25 7 14 -3 25 -2 25 3 0 4 12 10 28 12 15 2 28 5 30 6 1 0 2 -68 2 -152z
m1286 49 c27 -8 79 -20 117 -27 37 -7 67 -17 67 -21 0 -5 4 -7 9 -4 5 3 44 -2
88 -12 l78 -19 3 -133 c2 -122 1 -132 -15 -126 -9 4 -36 10 -60 13 -24 3 -43
9 -43 13 0 4 -11 5 -25 2 -14 -2 -25 0 -25 7 0 6 -8 10 -17 9 -28 -4 -217 34
-224 44 -3 5 -10 9 -15 9 -5 -1 -10 57 -12 129 -3 146 -7 139 74 116z m-317
-136 c-2 -76 -7 -126 -12 -123 -5 3 -12 1 -16 -4 -9 -13 -178 -56 -191 -48 -5
3 -10 2 -10 -3 0 -5 -33 -16 -72 -24 -40 -8 -80 -17 -88 -19 -13 -3 -15 17
-18 130 -2 124 -1 133 15 127 10 -4 14 -4 10 1 -8 7 35 18 238 62 55 12 107
26 115 30 8 5 19 6 23 4 5 -3 7 -63 6 -133z m766 30 c4 -6 11 -8 16 -4 5 3 33
-1 62 -9 28 -8 80 -20 114 -27 l62 -12 3 -125 c2 -69 2 -126 0 -127 -4 -5
-167 28 -170 35 -1 3 -14 4 -27 1 -14 -2 -25 0 -25 5 0 5 -15 9 -34 10 -19 1
-39 4 -45 8 -7 4 -11 53 -11 131 l0 124 24 0 c14 0 28 -5 31 -10z m-1215 -135
l0 -135 -27 -6 c-16 -3 -63 -15 -106 -25 -43 -11 -82 -17 -87 -14 -6 4 -10 1
-10 -6 0 -6 -8 -9 -20 -6 -11 3 -20 2 -20 -2 0 -4 -26 -13 -57 -19 -60 -11
-83 -17 -119 -27 -19 -6 -20 -2 -22 52 -1 32 -3 92 -4 133 l-3 74 45 12 c25 7
108 26 185 44 77 18 160 38 185 45 25 7 48 13 53 14 4 1 7 -60 7 -134z m-520
-128 l0 -133 -82 -20 c-46 -10 -90 -19 -98 -19 -8 0 -18 -3 -21 -8 -3 -4 -23
-8 -45 -10 -21 -1 -41 -5 -44 -8 -5 -6 -262 -70 -266 -66 -1 1 -4 62 -6 135
-3 144 -5 138 55 146 12 2 29 6 37 9 21 8 431 102 463 106 4 1 7 -59 7 -132z
m1240 84 c0 -5 10 -9 23 -9 25 0 184 -30 207 -39 8 -3 19 -5 24 -4 5 1 16 -1
25 -5 18 -8 27 -10 89 -20 l42 -7 0 -153 c0 -85 -4 -154 -8 -154 -5 0 -44 9
-88 19 -43 11 -119 27 -169 36 -49 9 -106 21 -125 26 l-35 11 4 80 c2 50 -1
84 -8 91 -12 12 -15 119 -4 130 9 10 23 9 23 -2z m-261 -154 c1 -76 -2 -137
-7 -141 -5 -3 -24 -6 -43 -8 -19 -1 -38 -5 -44 -9 -13 -9 -223 -52 -252 -52
-13 1 -23 -3 -23 -8 0 -5 -8 -9 -18 -9 -17 0 -18 8 -14 84 3 55 1 86 -7 90 -6
4 -11 27 -11 51 0 40 3 45 28 51 15 3 88 21 162 39 193 47 214 52 221 49 3 -2
6 -63 8 -137z m741 52 c0 -5 4 -7 10 -4 5 3 47 -3 92 -14 46 -10 104 -22 131
-26 l47 -7 0 -155 0 -155 -32 6 c-18 4 -50 9 -70 13 -21 3 -38 10 -38 15 0 5
-4 7 -9 4 -5 -3 -42 2 -82 10 l-74 17 3 103 c3 72 1 104 -7 104 -7 0 -11 20
-11 50 0 43 3 50 20 50 11 0 20 -5 20 -11z m-1205 -285 c-8 -9 -91 -30 -155
-39 -8 -1 -23 -6 -32 -10 -10 -4 -25 -5 -33 -1 -8 3 -15 2 -15 -3 0 -8 -148
-41 -203 -46 l-28 -2 4 126 c4 108 7 126 21 125 9 -1 16 3 16 8 0 6 9 8 20 5
11 -3 20 -1 20 5 0 6 11 8 25 6 13 -3 26 -2 27 2 2 4 77 25 168 47 l165 40 5
-126 c3 -77 1 -130 -5 -137z m-514 81 c2 -207 2 -200 -17 -201 -11 -1 -26 -4
-34 -7 -41 -15 -144 -35 -156 -30 -8 3 -14 0 -14 -7 0 -8 -9 -11 -25 -8 -14 3
-25 2 -25 -2 0 -4 -21 -11 -47 -15 -27 -3 -71 -13 -99 -21 -29 -8 -56 -14 -60
-13 -5 1 -16 0 -24 -4 -62 -23 -60 -27 -60 108 l0 123 33 6 c17 3 43 9 57 12
14 3 33 7 43 7 9 1 17 5 17 10 0 5 11 7 25 5 14 -3 25 -2 25 2 0 4 19 10 43
14 23 4 73 16 110 27 38 11 75 18 83 15 8 -3 14 -2 14 3 0 7 63 26 98 30 8 1
12 -16 13 -54z m975 -49 c-3 -14 -2 -28 4 -31 6 -4 10 -58 10 -129 l0 -124
-47 -7 c-27 -4 -59 -10 -73 -12 -14 -3 -36 -6 -50 -8 -14 -1 -33 -6 -42 -10
-10 -4 -25 -5 -33 -2 -8 4 -17 2 -19 -2 -3 -5 -29 -11 -58 -15 -29 -4 -63 -10
-75 -13 l-23 -5 0 150 0 150 31 6 c17 3 35 3 40 0 5 -3 9 -1 9 4 0 5 33 15 73
22 76 13 76 13 145 30 24 6 47 8 53 5 5 -4 9 -1 9 4 0 6 12 11 26 11 23 0 25
-3 20 -24z m347 7 c6 -4 20 -7 31 -8 12 -1 57 -9 101 -18 44 -9 106 -22 137
-28 l57 -12 3 -144 c2 -80 2 -146 0 -148 -4 -3 -152 24 -172 32 -8 3 -24 7
-35 8 -11 2 -33 6 -50 10 -16 4 -61 12 -100 19 l-70 12 -3 148 -3 149 47 -7
c25 -3 51 -9 57 -13z m1575 -140 c-3 -64 -2 -130 2 -147 5 -17 11 -61 15 -98
6 -58 4 -67 -8 -62 -8 3 -18 1 -22 -5 -3 -6 -28 -11 -56 -11 l-49 0 0 214 c0
242 -8 221 84 225 l39 1 -5 -117z m-1040 25 c2 -5 8 -6 12 -3 5 3 37 -2 72
-10 l63 -16 3 -149 4 -150 -29 10 c-15 5 -66 16 -113 25 -47 9 -92 19 -100 22
-15 6 -26 8 -63 11 -17 2 -18 13 -15 150 l3 148 80 -15 c44 -9 82 -19 83 -23z
m-1328 -111 c0 -108 -3 -144 -12 -145 -7 0 -29 -4 -48 -7 -19 -4 -48 -8 -65
-10 -16 -1 -38 -5 -49 -10 -11 -5 -21 -3 -26 4 -5 10 -9 9 -13 -2 -3 -8 -27
-17 -59 -22 -74 -11 -79 -12 -118 -24 -19 -6 -47 -11 -63 -11 l-28 0 3 138 c3
135 3 137 26 136 12 0 22 3 22 8 0 4 7 8 16 8 9 0 77 14 152 30 75 17 142 28
149 26 7 -3 13 -1 13 4 0 8 29 15 78 19 22 1 22 0 22 -142z m-522 -102 c4
-147 7 -140 -58 -149 -19 -2 -59 -9 -88 -16 -29 -7 -56 -9 -59 -6 -4 3 -11 2
-17 -3 -9 -7 -180 -40 -241 -46 -11 -2 -28 -6 -37 -10 -28 -11 -52 -1 -59 25
-4 14 -7 68 -8 121 l-1 97 41 10 c23 6 48 8 55 5 8 -3 14 0 14 7 0 8 9 11 25
8 14 -3 25 -2 25 2 0 7 138 36 154 32 4 -2 14 2 21 8 8 6 19 10 27 9 7 -1 20
1 28 4 11 5 106 25 170 36 3 0 6 -60 8 -134z m1341 4 c64 -12 118 -25 121 -29
3 -3 14 -7 25 -8 11 -1 50 -6 88 -13 l67 -11 0 -115 0 -115 -32 6 c-44 10 -57
12 -173 31 -55 9 -107 18 -115 22 -8 3 -32 7 -54 9 -21 2 -42 7 -47 10 -10 6
-13 234 -2 234 3 0 58 -10 122 -21z m-355 -121 c3 -68 7 -169 9 -225 l3 -103
-33 -11 c-18 -6 -37 -8 -42 -5 -5 4 -13 1 -16 -4 -4 -6 -19 -10 -33 -9 -15 2
-32 1 -37 -3 -6 -3 -36 -9 -69 -13 -32 -4 -68 -8 -80 -10 -11 -2 -41 -6 -66
-9 l-45 -5 -2 107 c-2 68 1 102 7 92 8 -12 10 -12 16 3 4 12 15 17 33 15 14
-1 31 0 36 4 11 7 120 21 150 20 10 -1 25 4 32 9 6 6 22 10 35 8 13 -1 31 1
41 6 9 4 26 5 37 2 14 -4 20 0 20 13 0 13 -7 17 -28 15 -16 -1 -34 -5 -41 -9
-6 -4 -21 -6 -34 -5 -12 1 -29 -1 -37 -4 -16 -6 -263 -37 -267 -34 -1 1 -5 48
-9 104 l-7 101 74 12 c41 7 85 15 99 17 14 3 36 6 50 8 14 1 33 6 43 10 9 4
24 5 32 1 8 -3 15 -1 15 4 0 8 29 14 86 18 21 2 22 -3 28 -120z m766 33 c3 -3
16 -7 30 -9 14 -1 32 -4 40 -6 8 -1 36 -6 63 -11 26 -4 47 -11 47 -16 0 -5 11
-7 25 -3 47 12 56 -8 53 -122 -3 -97 -10 -119 -32 -97 -3 4 -14 8 -24 9 -68 8
-226 35 -242 41 -8 4 -18 5 -22 5 -5 -1 -8 50 -8 113 l0 115 33 -7 c17 -3 34
-9 37 -12z m-1552 -58 c-29 -61 -45 -89 -53 -95 -5 -4 -7 -8 -3 -8 4 0 0 -20
-9 -45 -15 -47 -41 -69 -66 -59 -14 5 -27 72 -27 146 0 38 10 44 86 53 14 1
28 5 31 9 9 9 45 8 41 -1z m-198 -129 c0 -55 -4 -93 -9 -90 -5 4 -11 2 -13 -3
-1 -5 -30 -12 -63 -16 -33 -4 -71 -9 -85 -11 -14 -3 -39 -6 -56 -8 -17 -2 -37
-6 -43 -10 -6 -4 -24 -6 -39 -5 -15 1 -34 -1 -42 -4 -19 -7 -201 -29 -206 -25
-1 2 -3 41 -4 88 -2 63 1 84 10 82 7 -1 18 2 25 8 8 6 22 10 32 9 10 -1 25 1
33 4 14 5 174 34 230 41 14 2 33 7 43 11 9 4 26 5 37 2 11 -3 20 -1 20 5 0 6
13 8 30 6 17 -3 30 -1 30 4 0 4 16 8 35 8 l35 0 0 -96z m1250 25 c0 -7 12 -10
30 -7 16 2 31 1 32 -2 2 -4 64 -17 138 -29 74 -12 147 -24 163 -27 l27 -6 0
-110 c0 -99 -2 -109 -17 -104 -10 2 -40 7 -68 11 -27 3 -99 12 -160 20 -60 8
-122 16 -137 17 l-28 2 0 86 c0 47 -3 102 -6 123 -5 30 -4 37 10 37 9 0 16 -5
16 -11z m490 -87 c14 -1 34 -4 45 -6 11 -2 59 -10 108 -17 48 -7 87 -16 87
-21 0 -4 6 -5 13 -2 11 4 16 -13 20 -72 12 -141 12 -144 -26 -144 -19 0 -37 3
-40 7 -4 3 -19 7 -34 9 -16 2 -41 5 -58 7 -16 2 -52 7 -80 11 -104 15 -95 2
-95 125 0 108 4 128 24 113 6 -5 22 -9 36 -10z m-1740 -170 l0 -108 -89 -18
c-49 -10 -94 -15 -99 -12 -6 3 -13 2 -17 -4 -3 -5 -17 -10 -31 -10 -18 0 -23
4 -17 13 4 6 -5 4 -19 -5 -25 -17 -27 -16 -52 7 -14 13 -26 33 -26 43 0 11 -7
25 -15 32 -8 7 -12 16 -9 21 6 10 -55 65 -68 62 -4 -2 -8 1 -8 6 0 10 18 14
105 27 62 9 69 10 75 14 7 4 220 37 248 39 22 1 22 -1 22 -107z m1000 -91 c0
-60 3 -121 6 -137 6 -32 4 -33 -96 -37 -27 -1 -50 -5 -50 -8 0 -3 -37 -9 -82
-14 -74 -6 -117 -10 -183 -18 -19 -2 -20 4 -21 126 -1 125 0 128 22 133 13 3
28 3 33 -1 6 -3 11 -2 11 2 0 5 42 15 93 23 50 7 103 15 117 17 14 2 37 5 53
7 15 2 30 6 34 10 3 3 19 6 35 6 l28 0 0 -109z m335 73 c28 -3 57 -8 65 -11
18 -6 73 -12 117 -12 17 0 34 -5 38 -11 3 -6 10 -8 16 -5 5 3 23 3 41 0 l33
-6 3 -135 3 -134 -35 0 c-20 0 -36 4 -36 9 0 6 -16 7 -35 4 -19 -3 -42 -2 -52
3 -10 4 -34 8 -53 9 -39 2 -126 12 -182 21 l-38 6 0 139 0 140 33 -5 c17 -3
55 -8 82 -12z m-813 -181 l3 -112 -55 0 -55 1 14 114 c14 103 17 114 36 114
11 0 27 5 35 10 19 12 18 13 22 -127z m1278 108 c3 -3 32 -7 65 -9 33 -1 67
-5 75 -9 14 -7 24 -8 63 -12 15 -1 17 -12 16 -93 -1 -51 0 -106 2 -122 4 -29
3 -30 -41 -29 -25 0 -70 3 -100 7 -30 4 -86 10 -125 14 l-70 7 -3 133 -3 132
58 -6 c32 -4 60 -10 63 -13z m-1810 -196 c-12 -66 -29 -117 -30 -87 0 9 -6 8
-24 -3 -13 -9 -44 -16 -67 -16 -24 0 -57 1 -73 0 -28 0 -59 28 -49 44 2 4 0
13 -5 20 -9 12 -43 119 -39 123 1 2 14 5 27 7 14 2 32 7 40 10 8 4 29 9 45 12
17 2 54 9 84 15 29 6 59 9 67 6 7 -3 17 0 21 7 14 21 15 -65 3 -138z m1014
-90 c2 -50 7 -112 11 -139 6 -38 5 -47 -5 -41 -6 4 -22 3 -33 -3 -12 -6 -80
-16 -152 -22 -169 -16 -185 -17 -217 -25 -26 -7 -26 -6 -33 57 -3 34 -5 97 -3
138 3 72 4 75 28 76 14 1 32 4 40 7 13 5 60 10 288 32 19 2 37 6 40 10 3 3 12
4 19 3 10 -2 14 -29 17 -93z m391 47 c5 -4 28 -7 50 -8 22 -1 65 -4 95 -8 30
-3 66 -7 80 -9 25 -2 25 -3 30 -120 l5 -118 -50 5 c-27 3 -90 9 -138 12 -48 4
-90 10 -92 15 -3 4 -23 5 -45 2 -21 -3 -47 -2 -57 2 -10 5 -24 7 -30 6 -9 -1
-13 14 -13 51 0 29 -3 84 -7 121 l-6 69 84 -7 c46 -4 88 -10 94 -13z m-867
-149 l-3 -137 -32 -2 c-18 -1 -33 1 -33 5 0 4 -18 5 -40 3 l-40 -4 0 61 c0 34
4 61 10 61 6 0 10 21 10 48 0 26 4 52 8 58 6 10 89 41 115 43 4 1 6 -61 5
-136z m2757 45 c9 -55 27 -237 32 -338 9 -161 11 -454 3 -470 -4 -8 -10 -62
-14 -120 -6 -106 -7 -116 -26 -225 -6 -33 -11 -70 -11 -82 1 -12 -3 -24 -8
-28 -5 -3 -7 -14 -4 -25 3 -11 0 -33 -6 -50 -5 -17 -20 -84 -31 -148 -11 -64
-24 -124 -27 -132 -7 -19 -8 -25 -24 -135 -7 -49 -15 -92 -18 -95 -3 -3 -7
-27 -7 -55 -1 -27 -5 -79 -8 -115 -9 -85 -9 -241 0 -298 l7 -44 -94 5 c-197
12 -356 19 -409 19 -113 0 -200 9 -200 22 0 24 -65 85 -122 115 -50 26 -64 29
-120 25 -188 -13 -229 -5 -220 43 2 13 0 23 -5 23 -5 0 -18 41 -28 90 -10 50
-23 90 -27 90 -4 0 -5 7 -2 15 4 8 2 15 -3 15 -5 0 -18 35 -28 78 -9 42 -21
79 -24 82 -8 6 -51 190 -51 219 0 12 -4 21 -10 21 -5 0 -10 14 -10 30 0 17 5
30 10 30 6 0 10 11 10 25 0 31 28 115 45 135 18 21 76 78 100 99 11 10 36 24
55 31 19 8 38 19 42 24 4 7 58 10 141 8 150 -2 408 21 462 42 11 4 29 11 40
16 11 4 43 13 70 19 28 7 60 21 71 32 12 11 25 19 30 18 18 -4 86 33 114 61
16 17 33 30 37 30 4 0 19 15 33 32 14 18 34 42 45 53 11 11 27 38 34 60 8 22
18 43 23 46 12 8 24 91 39 260 6 79 15 146 20 149 4 3 13 87 20 186 12 173 13
180 30 163 10 -10 20 -33 24 -51z m-3340 -64 c-8 -43 -15 -91 -15 -106 0 -16
-5 -28 -11 -28 -6 0 -9 -6 -6 -14 4 -9 -4 -16 -25 -20 -53 -10 -56 -8 -64 39
-3 25 -10 45 -14 45 -5 0 -6 9 -3 21 3 12 1 24 -5 28 -6 3 -12 23 -14 44 -3
37 -1 39 36 52 22 8 57 13 78 13 21 0 42 2 45 6 13 13 13 -3 -2 -80z m2635 -3
c0 -4 21 -13 47 -21 54 -15 89 -32 88 -41 0 -3 15 -18 33 -33 17 -16 30 -32
26 -37 -3 -5 2 -9 10 -9 17 0 56 -68 56 -99 0 -11 5 -21 12 -23 17 -6 18 -180
1 -185 -7 -3 -13 -13 -13 -23 0 -9 -6 -23 -14 -29 -8 -7 -17 -23 -20 -36 -3
-13 -15 -29 -26 -35 -11 -6 -20 -17 -20 -25 0 -8 -4 -15 -9 -15 -4 0 -20 -11
-35 -25 -26 -24 -101 -65 -119 -65 -4 0 -15 -7 -23 -15 -20 -20 -156 -21 -176
-2 -12 13 -65 32 -80 29 -3 -1 -12 5 -18 13 -7 8 -19 15 -26 15 -8 0 -14 7
-14 17 0 9 -3 13 -7 10 -10 -11 -72 59 -79 90 -4 15 -13 35 -21 44 -27 32 -38
120 -24 198 7 39 19 77 26 84 7 7 16 23 20 35 9 31 131 150 156 153 5 1 13 2
18 3 5 0 13 4 17 9 4 4 18 7 31 7 13 0 23 4 23 9 0 11 76 18 128 12 17 -2 32
-6 32 -10z m-1260 -87 c19 -1 58 -5 85 -8 28 -3 94 -9 147 -12 l97 -7 3 -126
c3 -118 4 -126 23 -126 19 0 20 7 20 123 l0 122 26 0 c14 0 29 -3 33 -7 4 -4
26 -8 49 -10 23 -1 56 -4 72 -6 17 -3 67 -8 112 -12 80 -7 82 -8 71 -29 -6
-11 -10 -23 -9 -26 5 -10 -12 -106 -21 -124 -7 -13 -7 -31 0 -55 6 -20 16 -65
23 -101 7 -36 20 -70 28 -77 9 -6 13 -14 9 -18 -3 -4 2 -15 13 -26 10 -10 19
-26 19 -34 0 -8 5 -15 10 -15 6 0 15 -11 20 -25 5 -14 15 -25 22 -25 7 0 22
-13 33 -29 10 -16 22 -28 26 -25 4 2 12 -2 18 -10 18 -21 -12 -31 -121 -39
-16 -1 -28 -5 -28 -8 0 -4 -17 -9 -37 -12 -61 -8 -173 -38 -173 -46 0 -4 -19
-14 -42 -22 -24 -7 -48 -20 -55 -29 -7 -8 -13 -11 -13 -5 0 5 -7 -1 -16 -13
-8 -12 -19 -20 -24 -17 -5 3 -17 -7 -27 -22 -10 -15 -27 -37 -38 -48 -34 -37
-54 -63 -49 -68 2 -2 -2 -10 -11 -17 -8 -7 -15 -19 -15 -26 0 -8 -4 -14 -9
-14 -5 0 -12 -22 -16 -50 -4 -27 -11 -50 -16 -50 -5 0 -9 -15 -10 -32 l-1 -33
-9 33 c-6 18 -16 35 -24 39 -8 3 -13 9 -10 14 9 14 -98 129 -120 129 -8 0 -17
4 -20 10 -6 9 -86 49 -158 79 -15 6 -39 11 -52 11 -14 0 -25 4 -25 9 0 5 -23
12 -51 16 -50 7 -50 7 -24 21 33 17 145 125 145 140 0 6 9 23 20 37 26 33 52
144 51 215 0 67 -29 184 -47 195 -8 4 -14 16 -13 25 0 9 3 12 5 5 3 -7 11 -10
18 -7 13 5 14 83 2 232 l-5 54 27 -8 c15 -4 43 -8 62 -10z m-304 -26 c-3 -13
-6 -33 -6 -46 0 -13 -4 -20 -10 -17 -27 16 -189 26 -250 15 -14 -3 -57 -21
-95 -40 l-70 -35 -3 43 c-3 46 6 72 17 53 5 -7 16 -5 36 5 19 10 43 14 66 10
20 -3 39 -2 43 2 4 4 58 12 119 18 170 17 160 17 153 -8z m-486 -96 c0 -61 -3
-72 -28 -100 -33 -37 -81 -128 -92 -175 l-8 -32 -1 32 c-1 17 -5 33 -11 35 -5
2 -12 64 -16 139 l-7 136 34 7 c19 4 54 11 79 15 25 5 46 9 48 10 1 0 2 -30 2
-67z m-388 -82 c-2 -45 1 -80 6 -80 5 0 12 -43 15 -95 4 -52 14 -123 22 -156
9 -34 14 -64 11 -67 -3 -3 -2 -10 3 -16 5 -6 16 -37 25 -70 10 -32 26 -74 36
-94 11 -19 17 -39 14 -44 -3 -4 -1 -8 5 -8 5 0 13 -10 17 -22 3 -12 13 -28 20
-36 8 -7 11 -19 7 -25 -3 -7 -3 -9 1 -6 4 4 22 -8 39 -25 36 -36 91 -77 110
-80 7 -2 19 -6 27 -9 53 -20 126 -30 320 -42 114 -8 116 -8 175 -23 22 -5 81
-15 130 -23 71 -10 95 -17 112 -36 12 -13 29 -23 38 -23 9 0 18 -8 22 -17 3
-10 14 -27 23 -38 10 -11 20 -31 23 -45 3 -14 10 -43 16 -65 6 -22 11 -72 11
-112 0 -79 -32 -260 -54 -302 -8 -14 -22 -57 -32 -96 -9 -38 -20 -74 -24 -80
-4 -5 -13 -43 -20 -84 -11 -57 -11 -80 -2 -104 6 -17 9 -33 7 -36 -9 -9 -17 7
-22 48 -7 53 -26 53 -84 2 l-44 -40 65 -4 c36 -2 -43 -4 -176 -5 -132 -1 -348
-5 -480 -9 l-239 -6 -1 39 c0 21 -8 84 -17 139 -10 58 -17 156 -17 233 0 72
-3 132 -8 132 -4 0 -5 21 -3 46 2 26 -1 49 -6 53 -5 3 -20 58 -32 121 -12 63
-26 124 -31 135 -17 40 -52 352 -50 454 1 76 -3 106 -12 113 -11 6 -11 10 0
16 10 7 12 47 10 175 -2 92 0 167 3 167 3 0 9 37 12 83 11 153 34 208 29 67z
m809 64 c8 -5 23 -10 34 -11 11 -2 22 -8 23 -13 2 -6 9 -10 16 -10 16 0 106
-78 106 -91 0 -6 9 -19 20 -31 10 -11 22 -35 26 -52 3 -17 11 -36 16 -43 5 -7
7 -17 3 -23 -3 -5 -2 -10 3 -10 12 0 7 -157 -6 -173 -5 -7 -12 -24 -16 -39 -3
-16 -11 -28 -17 -28 -6 0 -8 -4 -5 -9 10 -16 -84 -110 -136 -136 -27 -14 -53
-23 -58 -20 -4 3 -13 -2 -20 -11 -9 -10 -22 -13 -42 -9 -17 4 -28 2 -28 -4 0
-6 -11 -11 -25 -11 -14 0 -25 5 -25 10 0 6 -8 10 -18 10 -34 0 -135 38 -144
54 -5 8 -15 13 -23 10 -8 -3 -26 6 -40 20 -14 14 -29 26 -33 26 -15 0 -63 86
-78 138 -22 75 -24 116 -7 186 16 72 47 126 101 181 46 47 122 93 122 74 0 -8
4 -7 13 3 6 9 23 19 37 21 38 8 186 1 201 -9z m-1286 -189 c4 -39 11 -72 15
-75 12 -8 31 -313 30 -505 -1 -175 -15 -425 -27 -455 -3 -8 -5 -27 -4 -42 1
-15 -2 -35 -7 -45 -6 -10 -18 -83 -27 -163 -9 -80 -19 -152 -22 -160 -4 -8 -5
-19 -4 -24 1 -4 -3 -22 -8 -40 -6 -17 -12 -56 -16 -86 -3 -30 -10 -93 -16
-140 -6 -47 -8 -99 -4 -116 l5 -32 -117 -6 c-65 -4 -149 -10 -188 -13 -38 -3
-97 -7 -130 -9 -33 -2 -94 -6 -135 -10 -41 -3 -109 -7 -151 -9 -42 -1 -82 -5
-88 -9 -6 -4 -37 -6 -70 -5 l-59 2 -1 131 c-1 74 -6 132 -11 134 -6 2 -7 8 -4
13 3 6 -1 25 -10 44 -9 18 -21 57 -26 86 -6 29 -15 56 -20 59 -5 3 -16 55 -23
115 -16 120 -6 207 26 239 9 10 17 21 17 25 0 4 12 14 28 22 15 8 33 20 40 27
7 6 22 12 32 12 10 0 21 4 24 8 3 5 26 9 52 11 26 1 54 6 63 10 9 4 37 7 64 7
26 -1 47 2 47 5 0 3 42 9 93 12 50 4 106 9 122 12 17 3 45 8 64 11 18 3 50 14
70 25 20 10 43 19 51 19 16 0 54 27 101 71 15 15 31 24 34 21 3 -3 5 0 5 6 0
6 14 26 30 44 17 18 30 38 30 45 0 6 7 19 16 27 8 9 12 20 9 26 -3 5 -3 10 2
10 11 0 32 70 39 128 3 26 10 57 16 68 5 12 8 49 6 83 -1 33 1 61 6 61 5 0 7
94 3 228 -5 191 -4 222 7 197 7 -17 17 -62 21 -100z m5055 90 c0 -19 4 -35 8
-35 5 0 15 -62 22 -137 7 -76 16 -174 21 -218 17 -166 -11 -735 -39 -779 -3
-6 -7 -18 -8 -26 -7 -52 -50 -256 -55 -260 -3 -3 -6 -12 -7 -20 -1 -8 -3 -31
-6 -50 -30 -216 -31 -457 -2 -531 6 -13 -3 -15 -56 -13 -56 2 -128 8 -223 18
-16 2 -79 7 -140 10 -60 4 -117 10 -125 13 -15 5 -119 11 -212 12 -26 0 -64 5
-85 10 -21 5 -71 11 -110 13 -40 1 -73 4 -73 5 0 2 11 20 23 41 24 37 44 142
28 142 -5 0 -11 12 -15 28 -32 152 -40 188 -46 192 -4 3 -15 50 -25 105 -22
120 -26 262 -7 296 20 36 79 77 123 84 21 4 39 10 39 15 0 8 81 26 160 35 25
3 65 8 90 11 25 3 59 7 75 8 17 0 32 4 35 8 3 4 37 10 75 13 92 8 240 49 292
81 13 8 24 13 26 12 10 -8 107 113 107 134 0 10 4 18 8 18 11 0 29 82 38 168
4 34 11 62 16 62 5 0 8 19 7 43 -2 24 0 48 4 53 9 16 29 404 22 441 -4 20 -2
33 5 33 5 0 10 -16 10 -35z m-425 -160 c72 -42 112 -82 142 -143 24 -48 28
-69 28 -137 0 -44 -6 -97 -13 -118 -17 -46 -87 -137 -107 -137 -8 0 -15 -4
-15 -10 0 -5 -6 -10 -14 -10 -8 0 -16 -4 -18 -10 -1 -5 -12 -11 -23 -13 -11
-1 -24 -5 -30 -9 -42 -26 -218 -13 -250 18 -7 8 -17 14 -21 14 -16 0 -102 99
-123 142 -17 36 -22 65 -23 122 0 75 16 146 33 146 5 0 9 9 9 19 0 23 98 124
111 115 5 -3 9 0 9 6 0 6 5 8 10 5 6 -3 10 -2 10 3 0 18 67 30 152 27 74 -2
95 -7 133 -30z m-5124 -103 c11 -12 26 -22 34 -22 22 0 95 -79 102 -111 3 -16
9 -29 12 -29 4 0 5 -15 3 -34 -2 -18 1 -37 7 -40 14 -9 15 -66 1 -66 -5 0 -10
-11 -10 -25 0 -15 -7 -40 -16 -58 -21 -39 -100 -117 -119 -117 -8 0 -17 -4
-20 -10 -3 -5 -19 -10 -36 -10 -16 0 -29 -4 -29 -9 0 -19 -60 -23 -85 -7 -13
9 -32 16 -41 16 -27 0 -126 50 -146 74 -103 119 -92 301 23 400 24 20 49 36
56 36 7 0 13 5 13 10 0 6 3 9 8 8 4 0 14 1 22 5 8 3 22 8 30 11 8 3 50 4 93 2
64 -2 81 -6 98 -24z m-1466 -33 c30 -11 55 -26 55 -32 0 -7 13 -19 29 -28 19
-11 32 -30 42 -63 7 -25 16 -46 20 -46 3 0 4 -11 1 -25 -2 -15 0 -25 7 -25 6
0 11 -13 11 -30 0 -16 -4 -30 -9 -30 -4 0 -14 -20 -21 -45 -7 -25 -17 -45 -21
-45 -5 0 -9 -7 -9 -15 0 -9 -11 -21 -25 -27 -14 -6 -25 -17 -25 -23 0 -7 -23
-22 -51 -34 -63 -26 -151 -28 -205 -4 -22 9 -43 17 -47 17 -4 1 -12 8 -17 16
-5 8 -12 12 -15 8 -10 -9 -62 54 -79 94 -22 52 -19 164 6 216 56 117 217 172
353 121z m9213 -81 c6 -1 12 -5 12 -9 0 -4 14 -10 30 -14 17 -4 30 -11 30 -16
0 -5 5 -9 10 -9 11 0 82 -70 72 -70 -4 0 1 -7 10 -14 10 -7 25 -44 34 -82 19
-84 6 -178 -32 -224 -13 -15 -24 -31 -24 -35 0 -4 -11 -18 -25 -31 -14 -13
-25 -20 -25 -17 0 4 -7 -2 -15 -13 -8 -10 -15 -16 -15 -12 0 4 -25 -4 -55 -17
-30 -14 -55 -21 -55 -17 0 4 -23 6 -50 5 -46 -1 -118 14 -130 27 -3 3 -22 18
-42 33 -109 81 -148 253 -81 360 13 20 21 37 18 37 -3 0 11 17 32 38 20 20 41
37 45 37 4 0 16 7 26 15 10 8 25 17 33 19 74 20 77 20 197 9z m-1054 -230 c6
-8 21 -18 33 -22 28 -9 84 -76 100 -119 6 -18 11 -63 11 -102 0 -38 -5 -84
-11 -101 -16 -43 -78 -114 -99 -114 -9 0 -21 -6 -25 -14 -10 -18 -88 -46 -128
-46 -40 0 -130 25 -150 41 -18 15 -67 63 -90 89 -22 24 -46 130 -39 170 8 49
27 100 36 100 4 0 8 6 8 14 0 8 7 16 15 20 8 3 15 12 15 20 0 8 8 17 18 20 10
4 28 15 40 26 36 34 63 40 161 36 69 -2 97 -7 105 -18z m-5956 -78 c4 0 6 -19
4 -41 -3 -23 0 -44 5 -48 8 -5 27 -149 37 -281 2 -19 6 -51 10 -70 3 -19 8
-44 9 -55 1 -11 6 -25 9 -31 4 -5 7 -28 7 -50 -1 -21 2 -52 5 -69 9 -52 28
-169 31 -195 1 -14 5 -32 8 -40 3 -8 13 -85 22 -170 9 -85 21 -165 27 -177 6
-13 8 -26 4 -30 -3 -4 -44 -9 -89 -11 -45 -2 -129 -6 -186 -8 -94 -5 -103 -4
-97 11 3 9 9 34 12 56 4 22 11 42 15 45 5 3 9 27 9 54 0 27 9 96 20 152 11 57
20 115 20 129 0 14 3 29 6 32 7 6 12 39 17 102 1 17 5 35 9 40 3 6 11 73 18
150 7 77 16 142 20 145 4 3 14 97 21 210 8 113 15 193 17 178 2 -16 7 -28 10
-28z m-1897 -281 c5 -8 9 -10 9 -6 0 4 10 -1 22 -13 12 -11 27 -20 34 -20 16
0 64 -57 64 -76 0 -8 4 -14 9 -14 5 0 15 -16 21 -36 26 -79 35 -216 34 -519
-1 -170 2 -317 6 -325 4 -8 11 -37 14 -63 l8 -49 -56 4 c-31 1 -56 0 -56 -3 0
-3 -39 -9 -87 -13 -49 -4 -106 -9 -128 -12 -22 -3 -58 -7 -80 -10 -22 -2 -74
-9 -115 -15 -41 -5 -87 -8 -102 -6 -16 2 -28 0 -28 -4 0 -4 -46 -10 -102 -14
-57 -4 -122 -11 -146 -15 -37 -7 -42 -5 -37 8 3 9 9 50 12 92 5 62 -1 107 -31
258 -20 101 -41 218 -47 260 -17 138 -12 324 10 342 3 3 13 19 22 35 9 17 21
29 27 27 7 -1 12 4 12 12 0 7 17 22 38 31 20 10 39 21 42 24 8 10 60 31 77 31
9 0 35 9 57 20 38 17 101 36 151 44 11 2 20 4 20 6 0 1 11 3 25 5 14 1 41 10
60 18 45 21 227 18 241 -4z m3580 -339 c6 -33 15 -60 19 -60 4 0 5 -11 2 -25
-2 -14 0 -25 6 -25 10 0 26 -55 23 -77 -1 -7 2 -13 6 -13 11 0 28 -41 48 -115
9 -33 23 -73 30 -90 17 -38 39 -124 33 -130 -2 -3 -11 11 -18 30 l-14 36 -148
-6 c-94 -3 -148 -1 -148 5 0 6 4 10 8 10 5 0 19 45 32 100 12 55 27 103 32
106 5 3 7 12 4 20 -3 8 -2 14 2 14 5 0 16 44 27 98 10 53 23 103 28 109 5 7 7
26 5 43 -8 56 11 31 23 -30z m-3211 -290 c4 0 5 -11 2 -25 -2 -15 0 -25 7 -25
6 0 11 -9 11 -21 0 -30 33 -149 41 -149 4 0 5 -9 2 -20 -3 -11 -1 -20 5 -20 6
0 16 -17 23 -37 6 -21 17 -47 22 -58 6 -11 12 -22 12 -25 0 -3 8 -19 18 -37
l17 -31 -63 -6 c-34 -3 -69 -5 -77 -4 -8 1 -30 -2 -47 -6 -38 -9 -38 -11 -8
124 14 60 16 115 13 280 -2 154 -1 187 6 133 5 -40 12 -73 16 -73z m5030 41
c5 -11 10 -38 10 -60 0 -23 4 -41 9 -41 4 0 6 -11 3 -25 -2 -15 0 -25 7 -25 6
0 11 -7 11 -15 0 -19 61 -149 72 -153 4 -2 8 -10 8 -18 0 -8 3 -14 8 -14 4 0
22 -18 40 -40 l33 -39 -97 2 c-72 1 -99 6 -102 16 -3 10 -6 10 -12 1 -5 -8
-18 -10 -38 -5 -27 6 -30 9 -23 33 5 15 14 96 21 180 7 83 17 152 23 152 5 0
7 16 5 35 -4 39 6 46 22 16z"/>
<path d="M9441 11729 c-14 -5 -37 -7 -53 -4 -15 4 -33 3 -40 -2 -7 -4 -26 -9
-43 -9 -16 -1 -70 -7 -120 -14 -49 -6 -108 -14 -130 -16 -22 -2 -60 -7 -85
-10 -25 -3 -64 -6 -87 -6 -29 0 -44 -6 -48 -17 -8 -19 -7 -525 1 -545 4 -10
18 -13 47 -11 23 2 121 7 217 10 277 9 424 15 438 20 15 5 10 263 -11 593 0 6
-8 12 -18 12 -9 0 -23 2 -31 4 -7 3 -24 0 -37 -5z m36 -151 c1 -57 4 -171 7
-254 l5 -151 -137 -7 c-75 -4 -175 -10 -222 -13 -47 -2 -120 -5 -162 -6 l-77
-2 0 233 c0 174 3 232 12 233 42 4 222 25 302 36 22 2 56 6 75 7 19 1 42 5 50
9 9 4 27 6 40 4 14 -2 36 -1 50 4 55 17 55 17 57 -93z"/>
<path d="M11025 11073 c4 -76 9 -158 11 -183 2 -25 6 -83 8 -130 2 -47 9 -104
15 -127 10 -36 14 -40 36 -35 14 2 25 0 25 -4 0 -5 10 -10 23 -10 12 -1 33 -4
47 -7 14 -4 64 -14 113 -24 48 -9 87 -21 87 -26 0 -4 5 -5 11 -2 5 4 22 2 37
-3 15 -6 43 -13 62 -16 l35 -6 -7 158 c-3 86 -7 199 -8 250 -2 110 11 97 -177
172 -73 29 -133 57 -133 62 0 5 -4 6 -10 3 -5 -3 -20 0 -32 7 -13 6 -27 13
-33 14 -5 2 -34 12 -64 24 l-53 21 7 -138z m237 -11 c47 -20 84 -41 81 -46 -4
-5 -1 -6 6 -2 6 4 36 -4 66 -18 52 -23 55 -27 55 -63 5 -238 7 -283 13 -289 4
-4 7 -28 7 -54 0 -46 0 -46 -30 -42 -16 2 -30 8 -30 12 0 4 -11 5 -25 2 -15
-2 -25 0 -25 7 0 7 -3 10 -8 8 -4 -3 -68 9 -141 27 -154 37 -151 34 -152 151
-1 114 -7 237 -13 242 -3 4 -6 39 -6 80 l0 73 58 -26 c31 -14 96 -42 144 -62z"/>
<path d="M11844 10723 c16 -370 18 -398 33 -415 9 -10 20 -15 25 -11 6 3 13 1
17 -5 3 -6 29 -14 56 -17 28 -4 55 -10 60 -13 6 -4 18 -5 28 -4 9 2 17 -2 17
-8 0 -7 8 -9 20 -5 11 3 20 2 20 -3 0 -10 32 -18 105 -29 22 -3 42 -9 43 -14
2 -5 15 -9 29 -9 21 0 23 3 17 23 -4 12 -9 85 -10 162 -2 77 -6 169 -9 205 -2
36 -4 73 -5 83 0 9 -6 17 -14 17 -7 0 -24 8 -37 19 -13 10 -30 16 -38 13 -9
-3 -11 0 -6 8 5 9 4 11 -3 6 -12 -7 -48 8 -70 31 -8 7 -18 11 -23 8 -5 -4 -9
-2 -9 4 0 6 -6 8 -14 5 -7 -3 -20 2 -29 10 -8 8 -17 12 -21 9 -3 -4 -6 -2 -6
4 0 6 -20 16 -45 22 -25 6 -45 16 -45 21 0 5 -7 7 -15 4 -8 -4 -15 -1 -15 6 0
6 -4 8 -10 5 -5 -3 -10 -1 -10 4 0 6 -9 11 -21 11 -21 0 -21 -2 -15 -147z m61
67 c4 -6 11 -8 16 -5 5 4 9 1 9 -5 0 -6 5 -8 10 -5 6 3 10 1 10 -5 0 -6 5 -8
10 -5 6 3 10 1 10 -6 0 -7 3 -9 6 -6 4 3 16 1 28 -5 11 -7 24 -11 29 -10 4 1
7 -3 7 -9 0 -5 5 -7 10 -4 6 3 10 2 10 -4 0 -6 7 -7 17 -4 12 5 14 3 8 -7 -5
-9 -4 -11 4 -6 6 4 18 0 27 -8 9 -9 20 -14 25 -11 5 4 9 2 9 -4 0 -6 7 -7 17
-4 11 4 14 3 9 -5 -4 -8 -2 -10 7 -6 8 3 21 -2 30 -10 9 -9 20 -16 25 -16 9 0
20 -138 22 -280 0 -41 3 -83 6 -92 4 -12 0 -18 -10 -18 -9 0 -16 5 -16 11 0 6
-7 8 -16 5 -9 -4 -23 -1 -30 5 -7 6 -18 8 -24 4 -5 -3 -10 -2 -10 3 0 5 -25
13 -55 17 -30 3 -55 11 -55 16 0 5 -11 7 -25 3 -16 -4 -25 -2 -25 6 0 6 -6 10
-12 8 -7 -3 -24 1 -37 8 -14 7 -27 11 -30 9 -3 -2 -6 9 -6 23 0 15 -4 42 -8
60 -3 18 -3 31 1 28 5 -3 4 23 -1 57 -6 34 -10 100 -11 147 -1 47 -5 97 -10
113 -8 27 5 39 19 17z"/>
<path d="M12517 10473 c3 -54 5 -134 4 -177 0 -44 3 -84 8 -90 4 -6 8 -41 7
-77 -1 -49 2 -65 12 -62 6 3 12 0 12 -6 0 -7 6 -11 13 -10 12 2 59 -8 87 -18
8 -4 23 -5 33 -4 9 1 17 -2 17 -7 0 -6 9 -8 20 -5 12 3 20 0 20 -6 0 -7 5 -9
10 -6 6 4 16 2 23 -3 7 -5 19 -10 27 -10 8 0 33 -5 55 -11 68 -18 68 -17 61
43 -4 30 -7 110 -7 180 -1 168 -3 175 -67 207 -29 14 -49 29 -45 34 5 4 0 5
-9 2 -10 -4 -18 -2 -18 3 0 6 -3 9 -7 8 -14 -4 -103 34 -103 44 0 5 -4 6 -10
3 -5 -3 -10 -2 -10 2 0 5 -20 14 -44 21 -24 6 -51 18 -59 27 -32 31 -36 17
-30 -82z m63 16 c0 -4 7 -5 17 -2 10 4 14 2 10 -4 -4 -6 -1 -10 6 -10 18 2 97
-34 97 -44 0 -5 7 -5 17 -2 10 4 14 2 9 -5 -4 -6 1 -10 11 -10 25 1 104 -37
96 -46 -4 -4 0 -4 10 0 11 4 17 1 18 -7 0 -8 2 -48 3 -89 1 -41 6 -113 10
-160 l9 -85 -27 -1 c-14 -1 -26 2 -26 8 0 5 -8 8 -17 7 -10 -1 -21 0 -25 1
-11 4 -19 6 -53 14 -16 4 -37 10 -45 13 -8 4 -23 5 -32 4 -10 -1 -18 3 -18 9
0 7 -8 9 -20 5 -12 -4 -20 -2 -20 5 0 6 -8 10 -17 8 -16 -3 -18 8 -20 102 -2
58 -8 137 -14 176 -9 55 -9 76 1 94 8 15 8 20 1 16 -6 -4 -11 0 -11 8 0 10 6
13 15 10 8 -4 15 -10 15 -15z"/>
<path d="M11154 10193 c4 -60 12 -110 17 -113 5 -4 9 -24 9 -46 0 -37 5 -95
15 -174 5 -37 14 -137 15 -156 0 -12 46 -29 68 -25 7 1 20 -5 29 -14 12 -13
18 -14 24 -4 6 10 11 10 22 1 7 -7 17 -9 20 -5 4 3 17 1 30 -5 26 -12 80 -23
119 -22 15 0 29 -4 32 -9 3 -4 18 -6 32 -3 20 4 25 2 19 -8 -6 -9 0 -10 24 -5
20 4 31 3 31 -4 0 -12 26 -15 33 -3 3 4 0 48 -5 97 -5 50 -9 105 -9 124 1 18
-4 40 -10 47 -7 9 -9 30 -5 58 4 27 3 47 -4 51 -5 3 -10 32 -10 63 0 68 -9 84
-46 88 -16 2 -30 8 -32 13 -2 5 -10 7 -19 4 -11 -4 -14 -2 -9 5 5 8 2 10 -8 6
-9 -3 -16 -1 -16 5 0 6 -9 11 -19 11 -11 0 -22 4 -26 10 -3 5 -13 6 -22 3 -11
-4 -14 -3 -9 5 5 8 2 10 -8 6 -9 -3 -16 -1 -16 5 0 6 -7 8 -15 5 -8 -4 -15 -1
-15 6 0 7 -7 10 -15 6 -8 -3 -15 -1 -15 4 0 6 -3 9 -7 8 -5 -1 -24 4 -43 11
-19 8 -38 13 -42 12 -5 0 -8 3 -8 9 0 5 -7 7 -15 4 -8 -4 -15 -1 -15 5 0 6
-11 11 -24 11 -14 0 -28 5 -31 10 -3 6 -11 10 -17 10 -7 0 -9 -33 -4 -107z
m97 16 c21 -7 36 -16 32 -22 -3 -5 3 -6 17 -2 17 5 21 4 15 -5 -5 -8 -4 -11 2
-7 6 4 26 -1 44 -10 34 -17 38 -19 72 -21 11 -1 15 -7 11 -14 -5 -8 -2 -9 9
-5 10 3 17 3 17 -2 0 -5 15 -11 33 -14 18 -3 50 -12 70 -21 33 -13 38 -19 37
-48 -1 -39 7 -144 16 -213 4 -27 8 -63 10 -80 2 -16 5 -45 7 -62 5 -31 -5 -44
-17 -24 -3 4 -17 6 -31 3 -15 -2 -25 0 -25 8 0 7 -8 9 -20 5 -12 -4 -27 -1
-35 5 -8 6 -19 9 -25 5 -6 -4 -16 -2 -23 3 -7 5 -23 10 -37 10 -14 1 -59 7
-100 15 l-75 13 2 39 c2 21 -1 43 -6 49 -9 10 -13 48 -27 247 -2 32 -8 69 -14
84 -11 29 -13 75 -4 75 4 0 24 -5 45 -11z"/>
<path d="M11885 9953 c2 -32 5 -65 8 -73 3 -8 11 -69 17 -135 7 -66 14 -136
16 -155 3 -19 6 -55 7 -80 2 -36 7 -47 27 -57 14 -7 35 -13 47 -13 12 0 24 -4
27 -9 3 -4 17 -6 31 -3 16 3 25 0 25 -8 0 -8 8 -10 24 -6 14 3 27 2 30 -3 3
-5 35 -12 71 -16 36 -3 63 -10 60 -15 -3 -4 4 -10 15 -13 11 -3 18 -1 14 4 -3
5 4 9 15 9 12 0 21 -4 21 -10 0 -5 12 -10 26 -10 25 0 26 2 19 43 -3 23 -8 62
-9 87 -2 25 -7 53 -11 63 -4 9 -4 37 -1 62 4 25 3 45 -2 45 -5 0 -12 38 -15
85 -6 84 -19 116 -45 107 -6 -2 -12 1 -12 8 0 6 -6 10 -12 9 -21 -2 -58 12
-58 23 0 5 -4 7 -9 4 -11 -7 -74 14 -82 26 -3 6 -10 9 -15 9 -24 -1 -112 34
-107 42 3 6 1 7 -5 4 -5 -4 -31 2 -57 13 -26 11 -50 20 -55 20 -4 0 -6 -26 -5
-57z m132 -38 c36 -10 60 -22 56 -28 -3 -6 -1 -7 6 -3 6 4 17 4 24 -2 7 -5 33
-15 59 -22 28 -7 45 -17 41 -23 -4 -6 0 -8 10 -4 10 3 17 2 17 -4 0 -6 4 -8 9
-5 5 3 23 -1 40 -10 28 -14 32 -20 31 -57 0 -23 4 -85 10 -137 6 -52 11 -114
11 -137 0 -24 5 -45 10 -49 5 -3 7 -9 5 -13 -7 -10 -66 -1 -66 10 0 5 -13 6
-30 3 -20 -4 -30 -2 -30 5 0 8 -8 10 -20 6 -12 -4 -26 -2 -33 3 -7 5 -19 10
-27 10 -8 1 -48 6 -87 13 -62 11 -73 16 -75 33 0 12 -3 35 -5 51 -9 82 -14
134 -16 170 -2 22 -5 45 -9 50 -3 6 -9 48 -13 94 -5 70 -4 83 7 75 7 -6 41
-19 75 -29z"/>
<path d="M12577 9709 c-3 -12 -1 -33 4 -47 6 -14 9 -38 7 -52 -1 -14 0 -30 4
-35 3 -6 9 -47 12 -93 4 -45 9 -93 11 -105 3 -12 6 -44 8 -70 5 -52 17 -71 45
-72 38 -1 172 -28 172 -35 0 -4 11 -5 24 -3 13 3 27 0 30 -6 4 -5 13 -8 21 -4
8 3 23 2 33 -3 29 -13 82 -12 82 2 0 7 -5 16 -11 20 -7 4 -9 25 -7 55 3 27 2
49 -2 49 -6 0 -23 167 -22 213 2 38 -17 65 -52 77 -20 6 -36 16 -36 21 0 6 -4
8 -8 5 -5 -3 -73 20 -152 50 -78 29 -146 54 -150 54 -4 0 -10 -9 -13 -21z
m160 -70 c217 -81 215 -80 211 -111 -3 -15 -1 -29 2 -30 4 -2 10 -41 14 -88
10 -130 15 -171 21 -180 8 -13 -14 -23 -33 -14 -21 8 -22 9 -152 30 -58 9
-108 22 -111 27 -4 5 -11 7 -17 3 -6 -4 -13 18 -17 57 -9 92 -35 288 -41 320
-3 16 -1 27 5 27 6 0 59 -18 118 -41z"/>
<path d="M4982 5243 c-5 -10 -152 -353 -327 -763 -174 -410 -331 -772 -348
-805 -45 -84 -82 -117 -155 -139 -53 -16 -62 -23 -62 -43 l0 -23 275 0 275 0
0 24 c0 21 -6 25 -47 31 -57 8 -123 35 -142 59 -26 31 -7 111 72 296 l74 175
339 3 340 2 74 -182 c87 -217 97 -273 55 -312 -23 -22 -98 -46 -140 -46 -9 0
-15 -10 -15 -25 l0 -25 345 0 345 0 0 24 c0 21 -6 25 -42 31 -90 15 -153 67
-205 168 -15 29 -169 392 -343 807 -270 648 -318 755 -337 758 -13 2 -25 -4
-31 -15z m100 -721 c76 -180 140 -335 144 -344 6 -17 -12 -18 -289 -18 l-295
0 147 345 c80 189 148 345 151 345 3 0 67 -148 142 -328z"/>
<path d="M510 5196 c0 -22 4 -24 73 -28 89 -6 133 -27 155 -76 15 -33 17 -105
17 -742 0 -685 -1 -706 -20 -745 -27 -54 -88 -85 -167 -85 -55 0 -58 -1 -58
-25 l0 -25 674 0 c632 0 674 1 681 18 4 9 38 108 75 220 67 197 68 202 46 202
-18 0 -34 -18 -73 -82 -72 -118 -123 -172 -196 -207 -87 -43 -171 -53 -425
-49 -246 3 -252 5 -272 77 -6 21 -10 176 -10 364 l0 329 248 -4 c240 -3 248
-4 297 -28 60 -30 88 -74 105 -167 11 -56 15 -63 36 -63 l24 0 0 305 0 305
-24 0 c-22 0 -25 -5 -31 -55 -11 -86 -41 -136 -100 -165 -49 -24 -56 -25 -302
-28 l-253 -4 0 342 0 342 313 -4 c275 -3 317 -6 354 -22 72 -31 112 -90 143
-213 9 -37 15 -43 36 -43 l26 0 -6 103 c-4 56 -9 141 -12 190 l-6 87 -674 0
-674 0 0 -24z"/>
<path d="M2130 5196 c0 -21 7 -25 58 -35 74 -15 113 -39 153 -97 18 -26 187
-403 375 -838 328 -757 344 -791 369 -791 25 0 38 28 341 770 173 424 329 791
345 817 42 65 99 114 158 135 41 14 51 22 51 40 l0 23 -270 0 -270 0 0 -25 c0
-20 7 -26 43 -35 139 -36 162 -66 133 -178 -12 -45 -449 -1136 -461 -1150 -4
-5 -483 1112 -494 1153 -27 99 2 144 109 171 61 16 70 21 70 41 l0 23 -355 0
-355 0 0 -24z"/>
<path d="M6720 5195 c0 -23 3 -25 53 -25 102 0 150 -27 178 -100 10 -27 15
-163 20 -575 7 -573 11 -621 60 -750 32 -85 136 -189 239 -237 122 -58 193
-72 375 -72 254 -1 394 44 520 168 74 74 109 141 137 267 19 86 21 137 27 624
l6 530 25 49 c35 71 66 90 150 94 66 4 70 6 70 28 l0 24 -305 0 -305 0 0 -25
c0 -23 3 -25 51 -25 71 0 126 -18 154 -52 43 -51 47 -103 43 -651 -4 -490 -5
-515 -26 -592 -24 -85 -49 -131 -103 -183 -157 -153 -471 -198 -661 -95 -94
51 -152 139 -184 278 -17 73 -19 128 -19 625 0 525 1 546 20 585 27 54 88 85
167 85 55 0 58 1 58 25 l0 25 -375 0 -375 0 0 -25z"/>
<path d="M8620 5196 c0 -21 6 -24 58 -30 76 -9 150 -46 223 -113 l60 -56 -3
-676 c-3 -653 -4 -677 -23 -716 -27 -53 -71 -77 -156 -83 -65 -4 -69 -6 -69
-28 l0 -24 305 0 305 0 0 24 c0 22 -4 24 -73 28 -87 6 -129 27 -154 78 -17 32
-18 85 -21 640 -3 600 -3 605 17 585 10 -11 269 -328 575 -705 429 -527 562
-686 581 -688 l24 -3 3 808 c3 749 4 811 21 849 24 55 64 76 154 82 69 4 73 6
73 28 l0 24 -305 0 -305 0 0 -25 c0 -23 3 -25 51 -25 114 0 169 -39 188 -132
8 -35 10 -234 9 -595 l-3 -542 -535 659 -535 659 -232 1 -233 0 0 -24z"/>
<path d="M10640 5195 c0 -23 3 -25 51 -25 114 0 169 -39 189 -133 7 -38 10
-260 8 -723 -3 -646 -4 -670 -23 -708 -31 -61 -62 -78 -149 -84 -72 -4 -76 -6
-76 -28 l0 -24 680 0 679 0 72 223 c78 241 80 248 62 254 -6 2 -27 -29 -46
-69 -74 -154 -173 -250 -289 -279 -70 -18 -550 -19 -590 -2 -15 7 -35 24 -45
40 -17 25 -18 69 -18 718 0 641 1 692 18 722 9 18 29 40 43 49 31 21 126 44
182 44 38 0 42 2 42 25 l0 25 -395 0 -395 0 0 -25z"/>
<path d="M13510 5196 c0 -25 3 -26 51 -26 114 0 169 -39 189 -133 7 -38 10
-260 8 -723 -3 -646 -4 -670 -23 -708 -31 -61 -62 -78 -149 -84 -72 -4 -76 -6
-76 -28 l0 -24 375 0 375 0 0 24 c0 22 -4 24 -76 28 -87 6 -118 23 -149 84
-19 36 -20 62 -23 362 l-3 323 92 -3 92 -3 292 -405 291 -405 232 -3 232 -2 0
23 c0 21 -7 26 -52 35 -29 6 -80 20 -113 33 -93 34 -185 135 -422 466 -112
155 -203 286 -203 290 0 4 40 21 89 36 215 69 331 216 331 418 0 63 -29 168
-60 214 -39 59 -126 136 -185 166 -114 56 -165 61 -662 66 l-453 5 0 -26z
m854 -99 c89 -41 131 -80 168 -155 31 -62 33 -73 33 -172 0 -99 -2 -109 -33
-172 -21 -43 -48 -80 -76 -102 -88 -73 -225 -116 -368 -116 l-78 0 0 365 0
364 38 6 c20 4 44 8 52 10 8 2 58 3 111 1 78 -2 106 -8 153 -29z"/>
<path d="M12684 4666 c-73 -17 -159 -57 -207 -97 -73 -60 -106 -175 -72 -254
21 -53 86 -71 144 -40 37 18 51 60 51 147 0 83 16 117 67 150 55 33 171 33
226 0 68 -43 113 -160 105 -276 l-3 -48 -104 -39 c-216 -81 -389 -177 -475
-262 -101 -102 -98 -306 7 -415 58 -60 101 -77 202 -77 108 0 135 11 276 114
l94 69 11 -54 c34 -171 185 -179 341 -18 56 59 63 70 63 106 l0 40 -51 -46
c-84 -76 -123 -72 -140 16 -4 23 -8 192 -9 373 0 342 -6 422 -38 484 -22 43
-95 95 -165 117 -72 22 -247 27 -323 10z m316 -719 l0 -222 -63 -43 c-171
-116 -299 -105 -363 32 -32 68 -31 128 2 193 32 66 85 113 176 159 72 37 226
103 241 104 4 0 7 -100 7 -223z"/>
</g>
</svg>
